<?xml version="1.0" encoding="UTF-8"?><svg xmlns="http://www.w3.org/2000/svg" viewBox="0 0 1260.61 712.24"><defs><style>.f{fill:#aeaeae;}</style></defs><g id="a"/><g id="b"><g id="c"><g id="d"><g id="e"><g><g><rect class="f" x="32.32" y="118.73" width=".28" height="63.35" transform="translate(-73.51 38.84) rotate(-31.35)"/><polygon class="f" points="15.91 123.59 15.91 123.3 80.95 116.53 81.04 116.81 15.91 123.59"/><polygon class="f" points="72.48 147.3 15.91 123.59 16 123.3 72.57 147.12 72.48 147.3"/><polygon class="f" points="48.94 177.61 48.76 177.42 72.38 147.12 72.57 147.3 48.94 177.61"/><rect class="f" x="48.85" y="177.33" width="46.87" height=".28"/><polygon class="f" points="137.52 211.5 95.63 177.61 95.82 177.33 137.7 211.31 137.52 211.5"/><rect class="f" x="137.42" y="211.4" width=".28" height="27.2"/><polygon class="f" points="148.34 284.73 137.42 238.61 137.7 238.51 148.62 284.63 148.34 284.73"/><rect class="f" x="152.6" y="284.15" width=".28" height="38.4" transform="translate(-63.36 41.34) rotate(-12.79)"/><polygon class="f" points="193.43 346.47 156.91 322.19 157.09 322 193.61 346.19 193.43 346.47"/><polygon class="f" points="231.64 396.64 193.43 346.38 193.61 346.19 231.92 396.45 231.64 396.64"/><polygon class="f" points="259.78 413.68 231.73 396.64 231.83 396.45 259.97 413.39 259.78 413.68"/><polygon class="f" points="281.62 432.97 259.78 413.68 259.97 413.49 281.81 432.78 281.62 432.97"/><polygon class="f" points="259.78 413.58 233.62 362.38 233.9 362.28 259.97 413.49 259.78 413.58"/><polygon class="f" points="233.81 362.47 233.71 362.19 263.45 347.32 263.64 347.6 233.81 362.47"/><rect class="f" x="262.53" y="340.87" width="39.81" height=".28" transform="translate(-95.07 109.61) rotate(-18.86)"/><polygon class="f" points="301.39 334.71 301.1 334.61 312.87 309.01 313.15 309.2 301.39 334.71"/><polygon class="f" points="313.15 309.2 312.96 309.01 320.4 297.81 320.59 298 313.15 309.2"/><polygon class="f" points="320.59 298 320.31 297.81 333.95 270.04 334.24 270.23 320.59 298"/><polygon class="f" points="334.14 270.23 334.05 270.04 376.5 246.89 376.59 247.17 334.14 270.23"/><polygon class="f" points="376.4 247.08 361.53 223.07 361.81 222.89 376.69 246.98 376.4 247.08"/><polygon class="f" points="361.63 223.07 334.05 211.5 334.14 211.22 361.72 222.79 361.63 223.07"/><rect class="f" x="323.94" y="182.53" width=".28" height="32.28" transform="translate(-53.55 242.24) rotate(-38.09)"/><rect class="f" x="314.09" y="185.99" width=".28" height="39.81"/><polygon class="f" points="298.75 263.64 298.47 263.55 314.09 225.71 314.28 225.8 298.75 263.64"/><polygon class="f" points="298.56 263.64 269.95 236.44 270.14 236.25 298.75 263.45 298.56 263.64"/><polygon class="f" points="269.95 236.44 246.89 215.73 247.08 215.54 270.14 236.25 269.95 236.44"/><polygon class="f" points="246.89 215.64 241.43 181.75 241.71 181.75 247.17 215.64 246.89 215.64"/><polygon class="f" points="241.71 181.75 241.43 181.75 245.66 153.71 245.95 153.71 241.71 181.75"/><polygon class="f" points="245.95 153.8 245.66 153.61 259.78 133.47 259.97 133.66 245.95 153.8"/><polygon class="f" points="259.88 133.75 259.88 133.47 288.02 129.99 288.02 130.27 259.88 133.75"/><rect class="f" x="209.36" y="133.8" width="50.64" height=".28" transform="translate(-2.19 3.91) rotate(-.95)"/><polygon class="f" points="168.39 145.7 168.29 145.42 209.24 134.22 209.33 134.5 168.39 145.7"/><rect class="f" x="160.34" y="114.67" width=".28" height="32.85" transform="translate(-42.98 91.82) rotate(-28.32)"/><polygon class="f" points="118.69 141.37 118.5 141.19 152.67 116.53 152.86 116.81 118.69 141.37"/><rect class="f" x="99.69" y="106.52" width=".28" height="44.9" transform="translate(-62.76 141.69) rotate(-56.73)"/><rect class="f" x="72.31" y="144.11" width="46.4" height=".28" transform="translate(-17.62 13.36) rotate(-7.33)"/><polygon class="f" points="95.63 177.61 72.38 147.3 72.57 147.12 95.82 177.42 95.63 177.61"/><polygon class="f" points="95.72 177.61 95.63 177.33 168.29 145.42 168.39 145.7 95.72 177.61"/><rect class="f" x="95.64" y="174.78" width="83.21" height=".28" transform="translate(-7.91 6.51) rotate(-2.64)"/><polygon class="f" points="178.65 172.44 118.5 141.47 118.6 141.19 178.74 172.15 178.65 172.44"/><polygon class="f" points="245.76 153.8 209.24 134.5 209.33 134.22 245.85 153.61 245.76 153.8"/><polygon class="f" points="200.96 201.8 200.67 201.71 209.14 134.32 209.43 134.41 200.96 201.8"/><polygon class="f" points="178.84 172.44 178.65 172.25 209.14 134.22 209.43 134.41 178.84 172.44"/><polygon class="f" points="200.86 201.9 200.77 201.61 241.52 181.57 241.62 181.85 200.86 201.9"/><polygon class="f" points="241.43 181.85 209.14 134.41 209.43 134.32 241.71 181.66 241.43 181.85"/><polygon class="f" points="219.31 234.93 219.12 234.65 246.89 215.54 247.08 215.73 219.31 234.93"/><rect class="f" x="223.77" y="184.61" width=".28" height="48.19" transform="translate(-40.42 363.06) rotate(-73.27)"/><polygon class="f" points="179.31 236.44 179.02 236.35 200.67 201.71 200.96 201.8 179.31 236.44"/><polygon class="f" points="179.21 236.53 179.12 236.25 219.22 234.65 219.22 234.93 179.21 236.53"/><polygon class="f" points="137.7 211.5 137.52 211.31 178.65 172.25 178.84 172.44 137.7 211.5"/><polygon class="f" points="137.61 211.5 137.61 211.22 200.77 201.61 200.86 201.9 137.61 211.5"/><polygon class="f" points="137.61 238.7 137.61 238.42 179.12 236.25 179.21 236.53 137.61 238.7"/><polygon class="f" points="191.07 280.58 179.02 236.44 179.31 236.35 191.35 280.49 191.07 280.58"/><polygon class="f" points="191.17 280.68 137.52 238.7 137.7 238.42 191.35 280.4 191.17 280.68"/><polygon class="f" points="219.12 300.54 148.43 284.82 148.53 284.54 219.22 300.26 219.12 300.54"/><polygon class="f" points="157.09 322.19 157 321.91 219.12 300.26 219.22 300.54 157.09 322.19"/><polygon class="f" points="193.71 346.38 193.43 346.28 197.66 319.93 197.94 319.93 193.71 346.38"/><polygon class="f" points="157 322.19 157 321.91 197.76 319.74 197.76 320.02 157 322.19"/><polygon class="f" points="197.76 320.02 197.76 319.74 251.22 316.07 251.22 316.35 197.76 320.02"/><polygon class="f" points="251.22 316.35 219.12 300.45 219.22 300.26 251.31 316.07 251.22 316.35"/><polygon class="f" points="219.12 300.45 191.17 280.68 191.35 280.4 219.31 300.26 219.12 300.45"/><polygon class="f" points="191.35 280.58 191.17 280.49 219.03 234.75 219.31 234.84 191.35 280.58"/><polygon class="f" points="243.31 259.31 243.03 259.31 246.89 215.64 247.17 215.64 243.31 259.31"/><polygon class="f" points="219.31 300.45 219.03 300.26 243.12 259.22 243.31 259.41 219.31 300.45"/><rect class="f" x="219.03" y="234.84" width=".28" height="65.51"/><polygon class="f" points="233.71 362.47 193.52 346.47 193.61 346.19 233.81 362.19 233.71 362.47"/><rect class="f" x="189.8" y="331.11" width="65.04" height=".28" transform="translate(-127.77 139.96) rotate(-27.48)"/><polygon class="f" points="263.74 347.51 263.45 347.41 289.81 280.4 290.09 280.49 263.74 347.51"/><polygon class="f" points="251.31 316.35 251.12 316.16 289.9 280.3 290.09 280.49 251.31 316.35"/><polygon class="f" points="233.9 362.38 233.62 362.28 251.12 316.16 251.41 316.26 233.9 362.38"/><polygon class="f" points="301.39 334.71 301.1 334.61 309.76 288.87 310.14 288.96 301.39 334.71"/><polygon class="f" points="312.87 309.1 309.76 288.96 310.14 288.87 313.15 309.1 312.87 309.1"/><polygon class="f" points="309.86 288.96 298.47 263.64 298.75 263.55 310.05 288.87 309.86 288.96"/><polygon class="f" points="309.86 289.06 289.9 280.58 290 280.3 310.05 288.77 309.86 289.06"/><polygon class="f" points="290.09 280.49 289.81 280.3 298.47 263.45 298.75 263.64 290.09 280.49"/><polygon class="f" points="333.95 270.23 314.09 225.8 314.28 225.71 334.24 270.04 333.95 270.23"/><rect class="f" x="333.95" y="211.4" width=".28" height="58.73"/><polygon class="f" points="314.19 226.09 314 225.9 334.05 211.31 334.24 211.5 314.19 226.09"/><polygon class="f" points="241.71 181.85 241.43 181.66 287.93 129.99 288.11 130.17 241.71 181.85"/><polygon class="f" points="344.21 169.61 327.55 156.43 327.74 156.15 344.31 169.42 344.21 169.61"/><polygon class="f" points="327.74 156.43 327.65 156.15 355.98 146.55 356.07 146.83 327.74 156.43"/><polygon class="f" points="344.4 169.61 344.12 169.52 355.88 146.65 356.17 146.74 344.4 169.61"/><polygon class="f" points="327.55 156.34 322.19 110.03 322.56 109.94 327.84 156.25 327.55 156.34"/><polygon class="f" points="355.98 146.74 322.28 110.13 322.47 109.94 356.17 146.55 355.98 146.74"/><polygon class="f" points="322.38 110.13 289.15 105.89 289.15 105.61 322.38 109.84 322.38 110.13"/><polygon class="f" points="289.34 105.8 289.06 105.7 292.16 76.33 292.44 76.33 289.34 105.8"/><polygon class="f" points="322.28 110.13 292.16 76.43 292.35 76.24 322.47 109.94 322.28 110.13"/><polygon class="f" points="414.99 181.57 414.81 181.38 438.43 145.52 438.62 145.61 414.99 181.57"/><polygon class="f" points="438.62 145.7 438.43 145.42 465.16 125.47 465.35 125.66 438.62 145.7"/><polygon class="f" points="465.26 125.75 465.16 125.47 495 115.68 495.09 115.96 465.26 125.75"/><polygon class="f" points="494.91 115.87 487.47 85.75 487.75 85.65 495.19 115.77 494.91 115.87"/><polygon class="f" points="487.75 85.75 487.47 85.65 501.97 56.76 502.15 56.85 487.75 85.75"/><polygon class="f" points="502.15 56.85 501.87 56.76 506.2 16 506.48 16 502.15 56.85"/><polygon class="f" points="506.3 16.19 450.2 4.42 450.2 4.14 506.3 15.91 506.3 16.19"/><polygon class="f" points="399.18 8.66 399.09 8.38 450.2 4.14 450.2 4.42 399.18 8.66"/><polygon class="f" points="356.83 9.41 356.83 9.13 399.09 8.38 399.09 8.66 356.83 9.41"/><polygon class="f" points="376.97 33.41 356.73 9.32 356.92 9.13 377.16 33.23 376.97 33.41"/><polygon class="f" points="399.75 79.16 376.97 33.32 377.16 33.23 400.03 78.97 399.75 79.16"/><polygon class="f" points="408.22 141.28 399.75 79.06 400.03 79.06 408.5 141.28 408.22 141.28"/><rect class="f" x="411.47" y="140.95" width=".28" height="40.66" transform="translate(-20.47 67.81) rotate(-9.19)"/><rect class="f" x="423.25" y="128.25" width=".28" height="30.4" transform="translate(222.27 542.69) rotate(-81.98)"/><polygon class="f" points="465.16 125.66 432.88 112.57 432.97 112.29 465.26 125.47 465.16 125.66"/><polygon class="f" points="408.5 141.37 408.31 141.19 432.88 112.29 433.07 112.48 408.5 141.37"/><polygon class="f" points="408.41 141.47 408.31 141.19 465.16 125.47 465.26 125.75 408.41 141.47"/><rect class="f" x="422.16" y="98.91" width="27.3" height=".28" transform="translate(250.08 505.55) rotate(-78.25)"/><polygon class="f" points="432.88 112.48 399.84 79.16 400.03 78.97 433.07 112.29 432.88 112.48"/><polygon class="f" points="438.43 85.75 406.62 50.07 406.81 49.89 438.62 85.56 438.43 85.75"/><polygon class="f" points="438.62 85.75 438.43 85.56 471.28 42.64 471.47 42.73 438.62 85.75"/><rect class="f" x="463.46" y="76.6" width=".28" height="49.13" transform="translate(-5.65 30.7) rotate(-3.77)"/><polygon class="f" points="487.56 85.84 461.96 76.71 462.06 76.43 487.66 85.56 487.56 85.84"/><polygon class="f" points="433.07 112.48 432.88 112.29 461.87 76.52 462.15 76.71 433.07 112.48"/><polygon class="f" points="462.15 76.62 461.87 76.52 471.19 42.64 471.47 42.73 462.15 76.62"/><polygon class="f" points="462.06 76.71 461.96 76.43 501.97 56.66 502.15 56.95 462.06 76.71"/><polygon class="f" points="501.97 56.95 471.28 42.83 471.38 42.54 502.15 56.66 501.97 56.95"/><polygon class="f" points="437.21 38.59 437.11 38.31 506.3 15.91 506.39 16.19 437.21 38.59"/><polygon class="f" points="471.38 42.83 437.21 38.59 437.21 38.31 471.38 42.54 471.38 42.83"/><polygon class="f" points="437.11 38.59 398.99 8.57 399.18 8.38 437.3 38.31 437.11 38.59"/><polygon class="f" points="437.3 38.5 437.02 38.4 450.01 4.24 450.29 4.33 437.3 38.5"/><polygon class="f" points="406.62 50.07 376.97 33.41 377.16 33.13 406.81 49.89 406.62 50.07"/><polygon class="f" points="406.52 50.17 398.99 8.57 399.28 8.47 406.81 50.17 406.52 50.17"/><polygon class="f" points="406.71 50.17 406.62 49.89 437.11 38.59 437.21 38.87 406.71 50.17"/><polygon class="f" points="400.03 79.06 399.75 79.06 406.52 49.98 406.81 49.98 400.03 79.06"/><polygon class="f" points="438.34 85.65 437.02 38.4 437.3 38.4 438.71 85.65 438.34 85.65"/><polygon class="f" points="438.53 85.84 399.84 79.16 399.93 78.88 438.53 85.56 438.53 85.84"/><polygon class="f" points="510.72 183.73 509.31 163.12 509.59 163.12 511 183.73 510.72 183.73"/><polygon class="f" points="509.5 163.31 509.4 163.02 527.94 155.4 528.04 155.68 509.5 163.31"/><polygon class="f" points="511 183.82 510.81 183.64 527.85 155.49 528.13 155.68 511 183.82"/><polygon class="f" points="185.52 115.68 174.32 88.38 174.6 88.29 185.8 115.58 185.52 115.68"/><rect class="f" x="185.59" y="114.81" width="27.95" height=".28" transform="translate(-5.43 9.99) rotate(-2.83)"/><polygon class="f" points="213.47 114.36 206.51 86.22 206.79 86.12 213.76 114.27 213.47 114.36"/><polygon class="f" points="174.51 88.48 174.51 88.19 206.6 86.03 206.6 86.31 174.51 88.48"/><polygon class="f" points="185.8 115.68 185.52 115.49 206.51 86.12 206.7 86.31 185.8 115.68"/><polygon class="f" points="330.75 708 330.47 708 339.13 668.47 339.41 668.47 330.75 708"/><polygon class="f" points="339.41 668.47 339.13 668.47 343.46 628.66 343.74 628.66 339.41 668.47"/><polygon class="f" points="343.65 628.75 343.46 628.56 364.36 609.27 364.54 609.55 343.65 628.75"/><polygon class="f" points="364.54 609.46 364.26 609.27 376.4 594.87 376.59 595.05 364.54 609.46"/><polygon class="f" points="376.59 595.05 376.5 594.77 391.65 586.3 391.84 586.58 376.59 595.05"/><polygon class="f" points="391.93 586.49 391.65 586.4 401.53 557.5 401.72 557.59 391.93 586.49"/><polygon class="f" points="401.72 557.69 401.53 557.4 418.67 548.37 418.76 548.65 401.72 557.69"/><polygon class="f" points="418.85 548.56 418.57 548.46 433.44 523.71 433.63 523.9 418.85 548.56"/><polygon class="f" points="433.35 523.8 429.11 487.47 429.4 487.38 433.63 523.8 433.35 523.8"/><polygon class="f" points="429.21 487.56 395.89 466.39 396.08 466.1 429.4 487.28 429.21 487.56"/><polygon class="f" points="395.89 466.39 368.59 450.76 368.78 450.48 396.08 466.1 395.89 466.39"/><polygon class="f" points="368.59 450.76 352.21 446.24 352.31 445.96 368.69 450.48 368.59 450.76"/><polygon class="f" points="352.12 446.24 336.21 437.3 336.31 437.02 352.31 445.96 352.12 446.24"/><polygon class="f" points="313.06 445.49 312.96 445.21 336.21 437.02 336.31 437.3 313.06 445.49"/><polygon class="f" points="320.12 464.5 312.87 445.4 313.15 445.3 320.4 464.41 320.12 464.5"/><polygon class="f" points="302.7 479.28 302.52 479.09 320.21 464.41 320.4 464.6 302.7 479.28"/><polygon class="f" points="314.94 519.66 302.42 479.19 302.7 479.19 315.22 519.57 314.94 519.66"/><polygon class="f" points="345.44 552.89 315.03 519.66 315.22 519.47 345.72 552.7 345.44 552.89"/><polygon class="f" points="330.75 590.72 330.47 590.63 345.44 552.7 345.72 552.79 330.75 590.72"/><rect class="f" x="302.44" y="613.83" width="47.34" height=".28" transform="translate(-338.24 818.8) rotate(-79.16)"/><polygon class="f" points="318.71 677.23 318.42 677.23 321.43 637.13 321.72 637.22 318.71 677.23"/><polygon class="f" points="330.47 708.1 318.42 677.32 318.71 677.13 330.75 707.91 330.47 708.1"/><polygon class="f" points="318.61 677.32 318.52 677.13 339.22 668.38 339.41 668.57 318.61 677.32"/><polygon class="f" points="339.22 668.57 321.43 637.22 321.72 637.13 339.41 668.38 339.22 668.57"/><polygon class="f" points="321.62 637.32 321.53 637.03 343.55 628.56 343.65 628.85 321.62 637.32"/><polygon class="f" points="343.46 628.75 330.47 590.72 330.75 590.63 343.74 628.66 343.46 628.75"/><polygon class="f" points="330.66 590.82 330.56 590.54 353.06 584.23 353.15 584.51 330.66 590.82"/><polygon class="f" points="364.26 609.46 352.97 584.51 353.15 584.32 364.54 609.36 364.26 609.46"/><rect class="f" x="364.65" y="576.78" width=".28" height="25.7" transform="translate(-322.47 681.38) rotate(-65.86)"/><polygon class="f" points="352.97 584.42 345.44 552.79 345.72 552.7 353.25 584.42 352.97 584.42"/><polygon class="f" points="391.93 586.4 391.65 586.4 392.31 528.89 392.59 528.89 391.93 586.4"/><polygon class="f" points="401.53 557.59 392.31 528.98 392.59 528.89 401.82 557.5 401.53 557.59"/><polygon class="f" points="345.62 552.89 345.53 552.6 392.4 528.79 392.5 529.07 345.62 552.89"/><polygon class="f" points="353.15 584.51 352.97 584.32 392.31 528.79 392.59 528.98 353.15 584.51"/><polygon class="f" points="315.13 519.75 315.03 519.47 347.79 505.54 347.88 505.82 315.13 519.75"/><polygon class="f" points="370.38 515.43 347.79 505.82 347.88 505.54 370.57 515.24 370.38 515.43"/><polygon class="f" points="345.72 552.89 345.44 552.7 370.38 515.24 370.57 515.43 345.72 552.89"/><polygon class="f" points="302.61 479.38 302.61 479 358.33 477.4 358.33 477.68 302.61 479.38"/><polygon class="f" points="320.4 464.6 320.12 464.41 336.12 437.11 336.4 437.21 320.4 464.6"/><rect class="f" x="317.76" y="455.11" width="36.9" height=".28" transform="translate(-182.7 229.37) rotate(-30.03)"/><polygon class="f" points="358.52 477.59 358.24 477.49 368.5 450.57 368.78 450.67 358.52 477.59"/><polygon class="f" points="315.22 519.66 315.03 519.47 358.24 477.4 358.43 477.59 315.22 519.66"/><polygon class="f" points="347.98 506.01 347.7 505.92 358.24 477.49 358.52 477.59 347.98 506.01"/><rect class="f" x="357.48" y="471.77" width="39.34" height=".28" transform="translate(-119.82 128.46) rotate(-16.72)"/><rect class="f" x="369.05" y="508.29" width="36.52" height=".28" transform="translate(-164.81 186.44) rotate(-22.45)"/><polygon class="f" points="404.26 501.59 404.17 501.31 429.21 487.28 429.3 487.56 404.26 501.59"/><polygon class="f" points="392.59 528.98 392.31 528.89 404.08 501.4 404.36 501.49 392.59 528.98"/><polygon class="f" points="433.44 523.9 404.17 501.49 404.36 501.31 433.63 523.71 433.44 523.9"/><polygon class="f" points="404.08 501.4 395.89 466.29 396.17 466.2 404.36 501.4 404.08 501.4"/><polygon class="f" points="404.17 501.59 358.24 477.68 358.43 477.4 404.26 501.31 404.17 501.59"/><polygon class="f" points="674.68 591.01 637.88 570.86 638.07 570.58 674.78 590.82 674.68 591.01"/><polygon class="f" points="637.79 570.77 625.93 527.66 626.21 527.66 638.07 570.68 637.79 570.77"/><polygon class="f" points="625.93 527.66 620.94 473.54 621.22 473.54 626.21 527.66 625.93 527.66"/><polygon class="f" points="621.03 473.63 586.58 441.26 586.77 440.97 621.22 473.45 621.03 473.63"/><polygon class="f" points="542.34 442.95 542.25 442.67 586.68 440.97 586.68 441.26 542.34 442.95"/><polygon class="f" points="542.16 442.95 527.28 414.34 527.57 414.24 542.44 442.76 542.16 442.95"/><polygon class="f" points="527.57 414.34 527.28 414.24 535.19 382.24 535.47 382.24 527.57 414.34"/><polygon class="f" points="535.47 382.33 535.29 382.15 558.82 350.52 559.1 350.61 535.47 382.33"/><polygon class="f" points="559.1 350.52 558.82 350.52 559.76 306 560.04 306 559.1 350.52"/><polygon class="f" points="595.53 320.02 559.85 306.19 559.95 305.9 595.62 319.74 595.53 320.02"/><polygon class="f" points="595.43 319.93 587.15 271.08 587.43 270.98 595.71 319.83 595.43 319.93"/><polygon class="f" points="587.43 271.17 587.24 270.89 608.89 252.25 609.08 252.54 587.43 271.17"/><polygon class="f" points="654.16 275.41 608.89 252.54 608.98 252.25 654.26 275.13 654.16 275.41"/><rect class="f" x="663.57" y="273.24" width=".28" height="43.86" transform="translate(-62.35 317.02) rotate(-25.7)"/><rect class="f" x="688.8" y="310.8" width=".28" height="64.95" transform="translate(-80.09 375.84) rotate(-28.91)"/><polygon class="f" points="737.37 414.34 704.52 371.79 704.71 371.6 737.65 414.15 737.37 414.34"/><polygon class="f" points="693.51 435.61 693.32 435.33 737.46 414.15 737.56 414.43 693.51 435.61"/><polygon class="f" points="693.41 435.61 693.41 435.33 752.24 434.85 752.24 435.14 693.41 435.61"/><polygon class="f" points="728.05 459.61 727.86 459.33 752.15 434.95 752.34 435.14 728.05 459.61"/><polygon class="f" points="712.15 516.55 711.86 516.46 727.86 459.42 728.15 459.52 712.15 516.55"/><polygon class="f" points="695.3 557.12 695.01 557.03 711.86 516.46 712.15 516.55 695.3 557.12"/><polygon class="f" points="674.87 591.01 674.59 590.82 695.01 557.03 695.3 557.12 674.87 591.01"/><polygon class="f" points="638.07 570.77 637.88 570.68 664.71 533.87 664.89 534.06 638.07 570.77"/><rect class="f" x="679.9" y="526.36" width=".28" height="38.21" transform="translate(-165.81 756.47) rotate(-52.74)"/><polygon class="f" points="674.59 590.91 664.61 533.97 664.89 533.97 674.87 590.91 674.59 590.91"/><polygon class="f" points="626.12 528.13 625.93 527.94 670.26 476.93 670.54 477.12 626.12 528.13"/><polygon class="f" points="626.12 528.13 626.02 527.85 711.96 516.37 712.05 516.65 626.12 528.13"/><rect class="f" x="663.21" y="525.15" width="50.36" height=".28" transform="translate(-139.13 270.3) rotate(-20.22)"/><polygon class="f" points="664.71 534.06 626.02 527.85 626.12 527.47 664.8 533.78 664.71 534.06"/><polygon class="f" points="711.86 516.65 670.35 477.12 670.54 476.93 712.15 516.46 711.86 516.65"/><polygon class="f" points="670.54 477.12 670.26 477.02 693.32 435.42 693.6 435.51 670.54 477.12"/><polygon class="f" points="670.45 477.21 670.35 476.93 727.96 459.33 728.05 459.61 670.45 477.21"/><polygon class="f" points="670.45 477.21 621.13 473.73 621.13 473.45 670.45 476.93 670.45 477.21"/><polygon class="f" points="621.22 473.63 620.94 473.54 632.8 415.94 633.08 416.03 621.22 473.63"/><polygon class="f" points="633.08 416.03 632.8 415.94 652.09 364.36 652.38 364.54 633.08 416.03"/><polygon class="f" points="632.99 416.12 632.89 415.84 678.92 404.17 679.01 404.45 632.99 416.12"/><polygon class="f" points="678.83 404.36 652.09 364.54 652.38 364.36 679.11 404.26 678.83 404.36"/><rect class="f" x="671.14" y="387.87" width="41.51" height=".28" transform="translate(-40.95 691.66) rotate(-51.79)"/><polygon class="f" points="704.62 371.89 652.19 364.54 652.28 364.26 704.62 371.6 704.62 371.89"/><polygon class="f" points="595.53 320.02 595.53 319.74 673.18 314.66 673.27 314.94 595.53 320.02"/><polygon class="f" points="591.38 357.86 591.1 357.77 595.43 319.83 595.71 319.93 591.38 357.86"/><rect class="f" x="574.87" y="337.73" width=".28" height="33.04" transform="translate(103.35 837.64) rotate(-77.34)"/><polygon class="f" points="591.1 357.86 559.76 306.09 559.95 305.9 591.29 357.77 591.1 357.86"/><rect class="f" x="535.36" y="381.67" width="28.43" height=".28" transform="translate(-11.09 16.47) rotate(-1.7)"/><polygon class="f" points="527.47 414.43 527.38 414.15 574.25 409.35 574.25 409.63 527.47 414.43"/><polygon class="f" points="527.47 414.34 527.28 414.15 563.71 381.3 563.9 381.49 527.47 414.34"/><polygon class="f" points="574.35 409.63 574.16 409.35 613.97 391.18 614.16 391.46 574.35 409.63"/><polygon class="f" points="563.62 381.39 558.82 350.61 559.1 350.52 563.9 381.39 563.62 381.39"/><polygon class="f" points="542.44 442.95 542.16 442.76 574.16 409.44 574.35 409.63 542.44 442.95"/><polygon class="f" points="586.49 441.16 573.88 409.54 574.16 409.44 586.77 441.07 586.49 441.16"/><polygon class="f" points="632.8 416.12 613.97 391.46 614.16 391.28 632.99 415.94 632.8 416.12"/><polygon class="f" points="586.68 441.26 586.58 440.97 632.8 415.84 632.99 416.12 586.68 441.26"/><polygon class="f" points="621.22 473.63 620.94 473.45 678.92 404.45 679.11 404.64 621.22 473.63"/><polygon class="f" points="670.54 477.12 670.26 477.02 678.83 404.55 679.11 404.64 670.54 477.12"/><polygon class="f" points="693.6 435.51 693.32 435.42 704.52 371.7 704.8 371.7 693.6 435.51"/><polygon class="f" points="574.25 409.82 573.97 409.72 591.1 357.77 591.38 357.86 574.25 409.82"/><polygon class="f" points="563.9 381.49 563.71 381.3 590.82 357.67 591.01 357.86 563.9 381.49"/><polygon class="f" points="614.16 391.46 613.97 391.18 652.19 364.36 652.28 364.54 614.16 391.46"/><polygon class="f" points="613.88 391.37 595.43 319.93 595.71 319.83 614.16 391.28 613.88 391.37"/><polygon class="f" points="652.19 364.54 595.43 320.02 595.62 319.74 652.28 364.36 652.19 364.54"/><polygon class="f" points="652.38 364.54 652.09 364.36 673.08 314.75 673.37 314.94 652.38 364.54"/><rect class="f" x="684.14" y="342.81" width="60.9" height=".28" transform="translate(156.69 905.99) rotate(-70.9)"/><polygon class="f" points="673.27 314.94 673.27 314.66 724.48 314 724.57 314.28 673.27 314.94"/><polygon class="f" points="673.37 314.94 673.08 314.75 699.25 275.22 699.53 275.41 673.37 314.94"/><polygon class="f" points="730.97 283.88 699.34 275.41 699.44 275.13 731.06 283.6 730.97 283.88"/><polygon class="f" points="770.13 314.38 724.76 314.28 724.76 314 770.13 314.09 770.13 314.38"/><polygon class="f" points="770.03 314.19 763.25 258.84 763.54 258.75 770.31 314.19 770.03 314.19"/><polygon class="f" points="731.06 283.88 730.97 283.6 763.35 258.65 763.44 258.94 731.06 283.88"/><polygon class="f" points="609.08 252.72 608.89 252.54 651.25 222.51 651.44 222.7 609.08 252.72"/><polygon class="f" points="651.25 222.7 631.39 209.24 631.57 208.96 651.44 222.51 651.25 222.7"/><polygon class="f" points="631.39 209.24 609.74 199.64 609.83 199.36 631.48 208.96 631.39 209.24"/><polygon class="f" points="609.93 199.54 609.74 199.45 624.89 172.25 625.08 172.34 609.93 199.54"/><polygon class="f" points="625.08 172.44 624.89 172.25 646.45 139.02 646.73 139.21 625.08 172.44"/><polygon class="f" points="646.73 139.21 646.54 139.02 675.06 119.35 675.25 119.54 646.73 139.21"/><polygon class="f" points="707.63 130.27 675.15 119.63 675.25 119.35 707.72 129.99 707.63 130.27"/><polygon class="f" points="698.69 168.11 698.4 168.01 707.44 130.08 707.82 130.17 698.69 168.11"/><polygon class="f" points="698.59 168.2 698.5 167.92 735.86 160.86 735.96 161.14 698.59 168.2"/><polygon class="f" points="735.96 161.14 735.86 160.95 770.03 134.79 770.22 134.97 735.96 161.14"/><polygon class="f" points="770.13 135.07 770.13 134.69 815.87 132.81 815.87 133.09 770.13 135.07"/><polygon class="f" points="862.65 143.54 815.78 133.09 815.87 132.81 862.65 143.26 862.65 143.54"/><polygon class="f" points="862.46 143.45 853.71 113.33 853.99 113.23 862.74 143.35 862.46 143.45"/><polygon class="f" points="853.99 113.42 853.71 113.23 866.79 99.77 866.98 99.96 853.99 113.42"/><polygon class="f" points="866.98 100.05 866.79 99.77 886.84 86.78 887.03 87.07 866.98 100.05"/><polygon class="f" points="887.03 86.97 886.75 86.88 903.97 53.93 904.16 54.12 887.03 86.97"/><polygon class="f" points="904.16 54.12 903.97 53.93 952.73 24.19 952.92 24.38 904.16 54.12"/><polygon class="f" points="979.36 44.8 952.73 24.38 952.92 24.19 979.55 44.61 979.36 44.8"/><polygon class="f" points="957.15 75.02 956.96 74.83 979.36 44.61 979.55 44.8 957.15 75.02"/><polygon class="f" points="996.4 78.03 957.06 75.11 957.06 74.83 996.5 77.75 996.4 78.03"/><rect class="f" x="996.4" y="77.75" width="30.31" height=".28"/><polygon class="f" points="1056.45 104.29 1026.61 78.03 1026.8 77.75 1056.64 104.01 1056.45 104.29"/><polygon class="f" points="1056.64 104.29 1056.55 104.01 1091.47 86.78 1091.65 87.07 1056.64 104.29"/><polygon class="f" points="1115.66 103.16 1091.47 87.07 1091.65 86.78 1115.84 102.97 1115.66 103.16"/><rect class="f" x="1137.26" y="89.22" width=".28" height="47.44" transform="translate(561.07 1099.99) rotate(-65.39)"/><polygon class="f" points="1158.86 122.93 1158.86 122.64 1200.09 118.41 1200.18 118.69 1158.86 122.93"/><polygon class="f" points="1256.28 147.87 1200.09 118.69 1200.18 118.41 1256.37 147.68 1256.28 147.87"/><polygon class="f" points="1256.28 147.96 1197.83 143.73 1197.83 143.45 1256.37 147.68 1256.28 147.96"/><rect class="f" x="1176.79" y="163.63" width="40.29" height=".28" transform="translate(978 1351.86) rotate(-87.35)"/><polygon class="f" points="1144.18 251.97 1143.89 251.78 1195.76 183.73 1196.04 183.92 1144.18 251.97"/><polygon class="f" points="1195.85 183.92 1141.54 181.1 1141.54 180.81 1195.85 183.64 1195.85 183.92"/><polygon class="f" points="1143.89 251.88 1141.35 181 1141.63 181 1144.18 251.88 1143.89 251.88"/><polygon class="f" points="1114.06 195.97 1113.87 195.68 1141.45 181 1141.54 181.28 1114.06 195.97"/><polygon class="f" points="1070.95 218.27 1070.76 217.99 1113.87 195.68 1114.06 195.97 1070.95 218.27"/><polygon class="f" points="1074.99 254.23 1070.76 218.09 1071.04 218.09 1075.28 254.23 1074.99 254.23"/><polygon class="f" points="1063.89 288.02 1063.61 287.93 1074.99 254.23 1075.28 254.32 1063.89 288.02"/><polygon class="f" points="1019.74 304.87 1019.65 304.59 1063.7 287.83 1063.79 288.11 1019.74 304.87"/><polygon class="f" points="999.88 340.73 999.7 340.64 1019.56 304.68 1019.84 304.87 999.88 340.73"/><polygon class="f" points="999.04 374.43 998.75 374.43 999.7 340.73 999.98 340.73 999.04 374.43"/><polygon class="f" points="968.07 385.35 967.98 385.06 998.85 374.24 998.94 374.52 968.07 385.35"/><polygon class="f" points="948.02 422.52 947.74 422.43 967.88 385.16 968.07 385.25 948.02 422.52"/><polygon class="f" points="947.83 422.62 920.07 394 920.25 393.82 948.02 422.43 947.83 422.62"/><rect class="f" x="913.08" y="356.21" width=".28" height="39.06" transform="translate(-73.88 347.74) rotate(-20.74)"/><polygon class="f" points="884.02 387.51 883.83 387.32 906.23 357.3 906.42 357.48 884.02 387.51"/><polygon class="f" points="868.77 404.45 868.58 404.17 883.83 386.95 884.02 387.13 868.77 404.45"/><polygon class="f" points="849 414.43 848.91 414.15 868.58 404.17 868.67 404.45 849 414.43"/><polygon class="f" points="848.81 414.34 840.25 381.02 840.53 380.92 849.1 414.24 848.81 414.34"/><polygon class="f" points="840.34 381.11 811.82 370.29 812.01 370 840.44 380.83 840.34 381.11"/><polygon class="f" points="811.82 370.29 780.67 347.32 780.86 347.04 812.01 370 811.82 370.29"/><polygon class="f" points="769.84 378.1 744.81 353.81 744.99 353.63 770.03 377.91 769.84 378.1"/><polygon class="f" points="744.9 353.91 744.81 353.63 780.67 347.04 780.76 347.32 744.9 353.91"/><polygon class="f" points="771.54 397.49 769.84 378 770.13 378 771.82 397.49 771.54 397.49"/><polygon class="f" points="737.56 414.43 737.46 414.15 771.63 397.3 771.73 397.58 737.56 414.43"/><polygon class="f" points="733.23 379.79 704.62 371.89 704.71 371.6 733.32 379.51 733.23 379.79"/><polygon class="f" points="733.42 379.7 733.13 379.6 744.71 353.81 744.99 353.91 733.42 379.7"/><polygon class="f" points="737.37 414.24 733.13 379.7 733.42 379.6 737.65 414.24 737.37 414.24"/><polygon class="f" points="733.23 379.79 733.23 379.51 769.94 377.82 769.94 378.19 733.23 379.79"/><polygon class="f" points="771.63 397.58 733.23 379.79 733.32 379.51 771.73 397.3 771.63 397.58"/><polygon class="f" points="744.81 353.91 724.38 314.19 724.66 314.09 745.09 353.81 744.81 353.91"/><polygon class="f" points="780.57 347.22 770.03 314.28 770.31 314.19 780.86 347.13 780.57 347.22"/><polygon class="f" points="780.67 347.32 724.48 314.28 724.57 314 780.86 347.04 780.67 347.32"/><polygon class="f" points="812.01 370.29 811.82 370.1 857.94 300.82 858.23 300.92 812.01 370.29"/><polygon class="f" points="906.23 357.48 892.3 319.83 892.58 319.74 906.42 357.39 906.23 357.48"/><polygon class="f" points="892.39 319.93 858.04 301.01 858.13 300.73 892.49 319.65 892.39 319.93"/><polygon class="f" points="906.23 357.86 858.32 301.01 858.51 300.82 906.42 357.67 906.23 357.86"/><polygon class="f" points="840.44 381.11 840.34 380.83 906.32 357.67 906.32 357.96 840.44 381.11"/><polygon class="f" points="883.92 387.13 840.44 381.11 840.44 380.83 883.92 386.85 883.92 387.13"/><rect class="f" x="854.42" y="374.4" width=".28" height="36.61" transform="translate(6.97 800.25) rotate(-50.36)"/><polygon class="f" points="858.32 301.01 831.31 273.05 831.49 272.87 858.51 300.73 858.32 301.01"/><polygon class="f" points="780.86 347.22 780.57 347.13 831.31 272.87 831.59 273.05 780.86 347.22"/><polygon class="f" points="780.86 347.32 780.67 347.04 858.32 300.92 858.51 301.2 780.86 347.32"/><rect class="f" x="776.08" y="255.1" width=".28" height="50.45" transform="translate(-33.98 437.42) rotate(-30.83)"/><polygon class="f" points="780.86 347.22 780.57 347.13 789.04 302.05 789.42 302.14 780.86 347.22"/><polygon class="f" points="789.33 302.23 789.14 301.95 831.21 273.15 831.4 273.34 789.33 302.23"/><polygon class="f" points="831.4 273.34 763.35 259.31 763.44 259.03 831.49 273.15 831.4 273.34"/><rect class="f" x="754.43" y="244.24" width="32.28" height=".28" transform="translate(206.52 823.48) rotate(-63.35)"/><polygon class="f" points="744.9 233.62 744.81 233.33 777.75 229.76 777.75 230.04 744.9 233.62"/><polygon class="f" points="763.25 258.84 744.71 233.62 744.99 233.43 763.54 258.65 763.25 258.84"/><polygon class="f" points="731.16 283.79 730.88 283.69 744.71 233.43 744.99 233.52 731.16 283.79"/><polygon class="f" points="711.77 228.25 711.58 228.06 751.68 200.48 751.87 200.67 711.77 228.25"/><polygon class="f" points="744.99 233.52 744.71 233.43 751.68 200.58 751.96 200.58 744.99 233.52"/><rect class="f" x="680.92" y="251.5" width="49.32" height=".28" transform="translate(285.94 872.18) rotate(-75.56)"/><polygon class="f" points="744.81 233.62 711.67 227.88 711.67 227.59 744.9 233.33 744.81 233.62"/><polygon class="f" points="699.53 275.41 699.34 275.22 744.81 233.43 744.99 233.62 699.53 275.41"/><polygon class="f" points="654.07 275.31 651.25 222.6 651.53 222.6 654.35 275.31 654.07 275.31"/><polygon class="f" points="651.44 222.7 651.34 222.51 697.56 204.72 697.65 205 651.44 222.7"/><polygon class="f" points="711.58 227.78 697.46 204.91 697.74 204.72 711.77 227.69 711.58 227.78"/><polygon class="f" points="654.26 275.41 654.07 275.22 711.58 227.59 711.77 227.88 654.26 275.41"/><rect class="f" x="587.95" y="297.42" width="73.7" height=".28" transform="translate(-52.85 437.94) rotate(-37.17)"/><polygon class="f" points="631.29 209.14 624.8 172.34 625.08 172.25 631.57 209.05 631.29 209.14"/><polygon class="f" points="631.57 209.14 631.29 209.05 646.45 139.12 646.73 139.12 631.57 209.14"/><polygon class="f" points="651.53 222.6 651.25 222.6 661.6 163.78 661.88 163.87 651.53 222.6"/><polygon class="f" points="698.5 168.2 661.69 163.96 661.79 163.68 698.59 167.92 698.5 168.2"/><polygon class="f" points="697.46 204.91 661.6 163.87 661.88 163.68 697.74 204.72 697.46 204.91"/><polygon class="f" points="697.74 204.81 697.46 204.81 698.4 168.11 698.69 168.11 697.74 204.81"/><polygon class="f" points="661.88 163.87 661.6 163.78 675.06 119.44 675.34 119.54 661.88 163.87"/><polygon class="f" points="661.6 163.87 646.45 139.21 646.73 139.02 661.88 163.78 661.6 163.87"/><polygon class="f" points="661.88 163.96 661.69 163.68 707.53 129.99 707.72 130.27 661.88 163.96"/><polygon class="f" points="697.74 204.91 697.46 204.72 735.77 160.95 736.05 161.14 697.74 204.91"/><rect class="f" x="688.39" y="194.19" width="70.97" height=".28" transform="translate(286.85 803.24) rotate(-69.36)"/><polygon class="f" points="789.14 195.31 773.51 163.87 773.8 163.78 789.33 195.21 789.14 195.31"/><polygon class="f" points="773.7 163.96 735.86 161.14 735.96 160.86 773.7 163.68 773.7 163.96"/><polygon class="f" points="752.05 200.77 751.96 200.39 789.23 195.12 789.23 195.4 752.05 200.77"/><polygon class="f" points="751.68 200.67 735.77 161.05 736.05 160.95 751.96 200.48 751.68 200.67"/><polygon class="f" points="777.94 229.95 777.66 229.85 789.04 195.21 789.33 195.31 777.94 229.95"/><polygon class="f" points="807.21 250.09 806.93 249.9 834.04 208.96 834.22 209.14 807.21 250.09"/><polygon class="f" points="807.12 250.09 807.02 249.81 827.17 245.57 827.17 245.85 807.12 250.09"/><polygon class="f" points="806.55 250.09 777.66 230.04 777.84 229.76 806.74 249.9 806.55 250.09"/><polygon class="f" points="858.41 252.82 807.02 250.09 807.02 249.81 858.41 252.54 858.41 252.82"/><polygon class="f" points="858.41 252.82 827.17 245.85 827.17 245.57 858.41 252.54 858.41 252.82"/><polygon class="f" points="831.31 273.34 806.93 250.09 807.12 249.9 831.49 273.15 831.31 273.34"/><polygon class="f" points="858.23 301.2 857.94 301.2 858.23 252.63 858.51 252.63 858.23 301.2"/><rect class="f" x="824.34" y="175.17" width="21.18" height=".28"/><polygon class="f" points="834.04 209.14 824.25 175.35 824.44 175.26 834.22 209.05 834.04 209.14"/><polygon class="f" points="834.22 208.96 834.04 208.86 845.33 175.26 845.61 175.35 834.22 208.96"/><polygon class="f" points="777.84 230.04 777.66 229.76 834.04 208.77 834.13 208.96 777.84 230.04"/><polygon class="f" points="834.04 209.05 789.23 195.4 789.23 195.12 834.13 208.77 834.04 209.05"/><polygon class="f" points="824.25 175.45 770.03 134.97 770.22 134.79 824.44 175.17 824.25 175.45"/><polygon class="f" points="773.51 163.87 770.03 134.88 770.31 134.88 773.8 163.78 773.51 163.87"/><polygon class="f" points="824.34 175.45 773.61 163.96 773.7 163.68 824.34 175.17 824.34 175.45"/><polygon class="f" points="824.15 175.35 815.68 133 815.96 132.9 824.44 175.26 824.15 175.35"/><rect class="f" x="835.88" y="159.15" width="36.24" height=".28" transform="translate(309.23 835.99) rotate(-61.73)"/><polygon class="f" points="845.52 175.45 845.52 175.17 881.19 172.15 881.19 172.44 845.52 175.45"/><rect class="f" x="890.43" y="164.98" width=".28" height="19.11" transform="translate(522.2 1003.92) rotate(-77.14)"/><polygon class="f" points="881.1 172.44 862.56 143.45 862.74 143.26 881.29 172.25 881.1 172.44"/><polygon class="f" points="862.74 143.35 862.46 143.35 866.79 99.87 867.07 99.96 862.74 143.35"/><polygon class="f" points="922.04 121.8 866.89 100.05 866.98 99.77 922.14 121.61 922.04 121.8"/><polygon class="f" points="922.04 121.8 886.84 87.07 887.03 86.88 922.23 121.61 922.04 121.8"/><polygon class="f" points="886.93 87.07 886.84 86.78 924.21 70.59 924.3 70.78 886.93 87.07"/><rect class="f" x="914.12" y="49.44" width=".28" height="26.07" transform="translate(288.71 732.14) rotate(-50.86)"/><rect class="f" x="940.51" y="56.3" width=".28" height="33.04" transform="translate(747.61 996.33) rotate(-82.62)"/><polygon class="f" points="924.4 70.78 924.11 70.59 952.44 24.19 952.73 24.38 924.4 70.78"/><polygon class="f" points="924.3 70.78 924.21 70.59 979.36 44.8 979.55 45.09 924.3 70.78"/><polygon class="f" points="862.74 143.54 862.56 143.26 922.04 121.61 922.14 121.8 862.74 143.54"/><polygon class="f" points="881.29 172.44 881.1 172.25 921.95 121.61 922.23 121.8 881.29 172.44"/><polygon class="f" points="922.23 121.7 921.95 121.7 924.11 70.69 924.4 70.69 922.23 121.7"/><rect class="f" x="959.08" y="74.8" width=".28" height="37.93" transform="translate(-4.46 108.18) rotate(-6.44)"/><polygon class="f" points="941.53 165.28 941.24 165.19 961.2 112.57 961.48 112.67 941.53 165.28"/><polygon class="f" points="1015.41 127.16 961.29 112.76 961.39 112.48 1015.51 126.88 1015.41 127.16"/><polygon class="f" points="987.84 143.45 961.2 113.42 961.39 113.23 988.12 143.26 987.84 143.45"/><polygon class="f" points="941.24 165.38 921.95 121.8 922.23 121.61 941.53 165.19 941.24 165.38"/><polygon class="f" points="961.39 112.76 961.2 112.48 996.31 77.75 996.5 78.03 961.39 112.76"/><polygon class="f" points="988.02 143.54 987.93 143.26 1015.41 126.97 1015.51 127.16 988.02 143.54"/><polygon class="f" points="941.43 165.38 941.34 165.19 987.93 143.26 988.02 143.54 941.43 165.38"/><polygon class="f" points="899.83 176.67 899.74 176.39 941.34 165.09 941.43 165.38 899.83 176.67"/><polygon class="f" points="895.41 218.46 834.13 209.24 834.13 208.96 895.41 218.18 895.41 218.46"/><polygon class="f" points="858.51 252.72 858.32 252.54 895.31 218.27 895.5 218.46 858.51 252.72"/><polygon class="f" points="827.26 245.85 827.17 245.57 895.31 218.18 895.5 218.46 827.26 245.85"/><polygon class="f" points="895.31 218.37 881.1 172.34 881.38 172.25 895.59 218.27 895.31 218.37"/><polygon class="f" points="941.34 234.75 895.31 218.46 895.5 218.18 941.43 234.46 941.34 234.75"/><polygon class="f" points="895.59 218.37 895.31 218.37 899.64 176.58 899.92 176.58 895.59 218.37"/><polygon class="f" points="941.24 234.75 899.74 176.67 899.92 176.48 941.53 234.56 941.24 234.75"/><polygon class="f" points="941.53 234.65 941.24 165.28 941.53 165.28 941.81 234.65 941.53 234.65"/><polygon class="f" points="941.43 234.75 941.24 234.56 970.89 214.6 971.08 214.79 941.43 234.75"/><polygon class="f" points="1011.18 230.51 970.89 214.79 970.99 214.6 1011.27 230.23 1011.18 230.51"/><rect class="f" x="1005.79" y="186.09" width=".28" height="45.09" transform="translate(-20.9 240.95) rotate(-13.52)"/><polygon class="f" points="971.08 214.79 970.89 214.6 1000.54 186.46 1000.82 186.74 971.08 214.79"/><polygon class="f" points="1000.92 186.74 941.34 165.38 941.43 165.09 1001.01 186.46 1000.92 186.74"/><polygon class="f" points="970.8 214.79 941.24 165.38 941.53 165.19 971.08 214.6 970.8 214.79"/><polygon class="f" points="1000.82 186.65 1000.54 186.55 1015.32 126.97 1015.6 127.07 1000.82 186.65"/><polygon class="f" points="1015.32 127.07 996.31 77.94 996.59 77.84 1015.6 126.97 1015.32 127.07"/><polygon class="f" points="1015.6 127.07 1015.32 126.97 1026.61 77.84 1026.9 77.94 1015.6 127.07"/><polygon class="f" points="1040.55 165.38 1015.32 127.16 1015.6 126.97 1040.83 165.19 1040.55 165.38"/><polygon class="f" points="1040.83 165.28 1040.55 165.28 1056.45 104.1 1056.73 104.2 1040.83 165.28"/><polygon class="f" points="1015.51 127.16 1015.41 126.88 1056.55 104.01 1056.64 104.29 1015.51 127.16"/><rect class="f" x="1074.99" y="131.3" width=".28" height="38.21"/><polygon class="f" points="1040.83 165.38 1040.64 165.19 1074.99 131.21 1075.18 131.4 1040.83 165.38"/><polygon class="f" points="1074.99 131.4 1056.45 104.2 1056.73 104.1 1075.28 131.21 1074.99 131.4"/><polygon class="f" points="1075.28 131.3 1074.99 131.21 1091 87.07 1091.28 87.25 1075.28 131.3"/><polygon class="f" points="1115.75 149.19 1075.09 131.4 1075.18 131.12 1115.84 148.9 1115.75 149.19"/><polygon class="f" points="1075.18 169.61 1075.09 169.42 1115.75 148.9 1115.84 149.19 1075.18 169.61"/><rect class="f" x="1112.05" y="135.64" width="50.54" height=".28" transform="translate(89.83 599.13) rotate(-30.67)"/><polygon class="f" points="1115.66 148.72 1115.37 148.72 1115.66 103.07 1115.94 103.07 1115.66 148.72"/><polygon class="f" points="1141.35 181.1 1115.56 148.81 1115.75 148.62 1141.63 180.91 1141.35 181.1"/><polygon class="f" points="1141.63 181.1 1141.45 180.91 1199.99 118.5 1200.27 118.69 1141.63 181.1"/><polygon class="f" points="1141.63 181.1 1141.45 180.81 1197.73 143.45 1197.92 143.63 1141.63 181.1"/><rect class="f" x="1186.43" y="130.88" width="25.13" height=".28" transform="translate(957.57 1312.75) rotate(-84.69)"/><rect class="f" x="1055.57" y="161.27" width=".28" height="60.8" transform="translate(43.78 548.42) rotate(-29.71)"/><polygon class="f" points="1113.87 195.97 1074.99 169.61 1075.18 169.42 1114.06 195.68 1113.87 195.97"/><polygon class="f" points="1011.27 230.51 1011.18 230.23 1070.85 217.99 1070.85 218.27 1011.27 230.51"/><polygon class="f" points="1011.37 230.42 1011.08 230.42 1015.32 127.07 1015.6 127.07 1011.37 230.42"/><polygon class="f" points="1011.37 230.42 1011.08 230.32 1040.55 165.19 1040.83 165.38 1011.37 230.42"/><polygon class="f" points="1074.52 254.32 1011.18 230.51 1011.27 230.23 1074.71 254.14 1074.52 254.32"/><polygon class="f" points="990.38 273.05 941.24 234.75 941.43 234.56 990.57 272.87 990.38 273.05"/><rect class="f" x="980.59" y="213.15" width=".28" height="61.46" transform="translate(-26.75 323.26) rotate(-18.47)"/><polygon class="f" points="990.47 273.15 990.38 272.87 1075.09 254.14 1075.18 254.42 990.47 273.15"/><polygon class="f" points="1019.65 304.49 990.28 273.05 990.57 272.87 1019.84 304.3 1019.65 304.49"/><polygon class="f" points="1019.65 304.59 939.36 292.35 939.46 292.07 1019.74 304.3 1019.65 304.59"/><polygon class="f" points="999.79 340.82 945.29 337.62 945.29 337.25 999.79 340.54 999.79 340.82"/><rect class="f" x="942.34" y="291.9" width=".28" height="45.65" transform="translate(-34.03 130.99) rotate(-7.81)"/><polygon class="f" points="945.57 337.62 892.39 319.93 892.49 319.65 945.67 337.34 945.57 337.62"/><polygon class="f" points="892.58 319.93 892.39 319.65 939.36 292.07 939.46 292.35 892.58 319.93"/><rect class="f" x="898.71" y="227.24" width=".28" height="90.17" transform="translate(259.69 960.49) rotate(-63.97)"/><polygon class="f" points="939.55 292.26 939.27 292.16 941.24 234.65 941.53 234.65 939.55 292.26"/><polygon class="f" points="920.25 394 920.07 393.91 945.57 337.44 945.86 337.53 920.25 394"/><polygon class="f" points="967.88 385.25 945.48 337.72 945.76 337.62 968.16 385.16 967.88 385.25"/><polygon class="f" points="998.85 374.52 945.2 337.53 945.39 337.34 999.04 374.33 998.85 374.52"/><polygon class="f" points="933.24 475.8 928.91 459.52 929.2 459.42 933.53 475.7 933.24 475.8"/><polygon class="f" points="954.7 485.4 933.34 475.89 933.43 475.61 954.89 485.12 954.7 485.4"/><polygon class="f" points="954.7 485.31 929.01 459.61 929.2 459.33 954.89 485.12 954.7 485.31"/><polygon class="f" points="970.61 474.86 970.42 474.67 995.46 453.96 995.65 454.15 970.61 474.86"/><polygon class="f" points="992.64 482.39 970.52 474.95 970.61 474.67 992.73 482.11 992.64 482.39"/><polygon class="f" points="992.82 482.2 992.54 482.2 995.37 454.06 995.65 454.06 992.82 482.2"/><rect class="f" x="1070.14" y="475.59" width=".28" height="33.6" transform="translate(30.02 1045.39) rotate(-52.7)"/><polygon class="f" points="1083.47 502.62 1081.02 482.2 1081.3 482.2 1083.75 502.53 1083.47 502.62"/><rect class="f" x="1056.92" y="482.11" width="24.28" height=".28"/><polygon class="f" points="1083.65 502.72 1083.65 502.44 1100.22 501.49 1100.22 501.78 1083.65 502.72"/><polygon class="f" points="1100.13 501.68 1081.11 482.29 1081.3 482.11 1100.31 501.49 1100.13 501.68"/><polygon class="f" points="990.57 591.29 988.31 560.98 988.59 560.98 990.85 591.29 990.57 591.29"/><polygon class="f" points="1025.11 593.55 990.66 591.38 990.75 591.1 1025.11 593.27 1025.11 593.55"/><polygon class="f" points="1060.78 595.62 1025.11 593.55 1025.11 593.27 1060.88 595.34 1060.78 595.62"/><polygon class="f" points="1079.32 609.08 1060.78 595.62 1060.88 595.43 1079.51 608.8 1079.32 609.08"/><polygon class="f" points="1094.95 617.55 1079.32 609.08 1079.42 608.8 1095.04 617.36 1094.95 617.55"/><polygon class="f" points="1095.14 617.55 1094.95 617.36 1113.96 599.67 1114.15 599.85 1095.14 617.55"/><polygon class="f" points="1060.88 595.62 1060.78 595.34 1085.35 586.87 1085.44 587.15 1060.88 595.62"/><polygon class="f" points="1116.41 571.52 1091.37 556.84 1091.56 556.56 1116.5 571.24 1116.41 571.52"/><polygon class="f" points="1114.24 599.76 1113.96 599.76 1116.32 571.43 1116.6 571.43 1114.24 599.76"/><polygon class="f" points="1091.75 557.03 1087.04 538.58 1087.33 538.58 1092.03 556.93 1091.75 557.03"/><polygon class="f" points="1087.14 538.67 1053.82 528.6 1053.91 528.32 1087.23 538.49 1087.14 538.67"/><polygon class="f" points="1015.51 538.67 1015.41 538.49 1053.82 528.32 1053.91 528.6 1015.51 538.67"/><polygon class="f" points="988.49 561.08 988.31 560.89 1015.32 538.49 1015.6 538.67 988.49 561.08"/><rect class="f" x="996.44" y="557.2" width=".28" height="22.4" transform="translate(-86.68 946.3) rotate(-48.93)"/><rect class="f" x="987.29" y="583.33" width="21.18" height=".28" transform="translate(-113.37 901.79) rotate(-46.3)"/><rect class="f" x="1004.08" y="571.21" width="20.8" height=".28" transform="translate(-145 465.46) rotate(-24.17)"/><polygon class="f" points="1024.07 567.19 1023.79 567.1 1036.97 542.72 1037.25 542.91 1024.07 567.19"/><polygon class="f" points="1036.87 542.91 1036.69 542.72 1054.1 528.41 1054.29 528.6 1036.87 542.91"/><rect class="f" x="1023.8" y="564.8" width="33.23" height=".28" transform="translate(-63.72 137.74) rotate(-7.35)"/><polygon class="f" points="1025.01 593.45 1023.79 567.19 1024.07 567.19 1025.3 593.45 1025.01 593.45"/><rect class="f" x="1046.78" y="538.61" width=".28" height="28.43" transform="translate(-84.03 902.99) rotate(-45.04)"/><polygon class="f" points="1085.35 587.15 1056.83 563.05 1057.02 562.77 1085.54 586.87 1085.35 587.15"/><polygon class="f" points="1061.06 595.43 1056.45 562.96 1056.73 562.86 1061.35 595.34 1061.06 595.43"/><polygon class="f" points="1060.78 595.62 1023.89 567.29 1024.07 567.01 1060.88 595.43 1060.78 595.62"/><polygon class="f" points="1056.64 563.05 1056.55 562.77 1091.47 556.84 1091.47 557.12 1056.64 563.05"/><polygon class="f" points="1091.37 556.84 1053.82 528.6 1054.01 528.32 1091.56 556.56 1091.37 556.84"/><polygon class="f" points="1056.55 563.15 1054.01 528.7 1054.29 528.7 1056.83 563.15 1056.55 563.15"/><polygon class="f" points="1085.54 587.34 1085.25 587.24 1091.37 556.93 1091.65 557.03 1085.54 587.34"/><polygon class="f" points="1085.44 587.43 1085.35 587.15 1116.41 571.24 1116.5 571.52 1085.44 587.43"/><polygon class="f" points="1094.86 617.46 1085.25 587.05 1085.54 586.96 1095.14 617.36 1094.86 617.46"/><polygon class="f" points="13.93 195.31 13.84 195.03 48.85 177.33 48.94 177.61 13.93 195.31"/><polygon class="f" points="13.74 195.21 4.14 155.78 4.42 155.68 14.02 195.12 13.74 195.21"/><polygon class="f" points="4.42 155.78 4.14 155.68 15.81 123.4 16.1 123.49 4.42 155.78"/><polygon class="f" points="48.85 177.61 4.14 155.87 4.33 155.59 48.94 177.33 48.85 177.61"/><rect class="f" x="765.84" y="76.55" width="34.17" height=".28" transform="translate(604.44 842.85) rotate(-82.48)"/><polygon class="f" points="785.09 59.86 784.9 59.67 824.25 31.06 824.44 31.25 785.09 59.86"/></g><g><g><path class="f" d="M20.14,123.4c0,2.35-1.88,4.24-4.24,4.24s-4.24-1.88-4.24-4.24,1.88-4.24,4.24-4.24,4.24,1.88,4.24,4.24Z"/><path class="f" d="M53.09,177.52c0,2.35-1.88,4.24-4.24,4.24s-4.24-1.88-4.24-4.24,1.88-4.24,4.24-4.24,4.24,1.88,4.24,4.24Z"/><path class="f" d="M85.28,116.62c0,2.35-1.88,4.24-4.24,4.24s-4.24-1.88-4.24-4.24,1.88-4.24,4.24-4.24,4.24,1.88,4.24,4.24Z"/><path class="f" d="M99.96,177.52c0,2.35-1.88,4.24-4.24,4.24s-4.24-1.88-4.24-4.24,1.88-4.24,4.24-4.24,4.24,1.88,4.24,4.24Z"/><path class="f" d="M122.83,141.28c0,2.35-1.88,4.24-4.24,4.24s-4.24-1.88-4.24-4.24,1.88-4.24,4.24-4.24,4.24,1.88,4.24,4.24Z"/><circle class="f" cx="72.48" cy="147.21" r="4.24"/><path class="f" d="M141.85,211.4c0,2.35-1.88,4.24-4.24,4.24s-4.24-1.88-4.24-4.24,1.88-4.24,4.24-4.24,4.24,1.88,4.24,4.24Z"/><path class="f" d="M141.85,238.51c0,2.35-1.88,4.24-4.24,4.24s-4.24-1.88-4.24-4.24,1.88-4.24,4.24-4.24,4.24,1.88,4.24,4.24Z"/><path class="f" d="M172.62,145.52c0,2.35-1.88,4.24-4.24,4.24s-4.24-1.88-4.24-4.24,1.88-4.24,4.24-4.24,4.24,1.88,4.24,4.24Z"/><path class="f" d="M157,116.62c0,2.35-1.88,4.24-4.24,4.24s-4.24-1.88-4.24-4.24,1.88-4.24,4.24-4.24,4.24,1.88,4.24,4.24Z"/><path class="f" d="M182.98,172.34c0,2.35-1.88,4.24-4.24,4.24s-4.24-1.88-4.24-4.24,1.88-4.24,4.24-4.24,4.24,1.88,4.24,4.24Z"/><path class="f" d="M183.45,236.35c0,2.35-1.88,4.24-4.24,4.24s-4.24-1.88-4.24-4.24,1.88-4.24,4.24-4.24,4.24,1.88,4.24,4.24Z"/><path class="f" d="M251.22,215.64c0,2.35-1.88,4.24-4.24,4.24s-4.24-1.88-4.24-4.24,1.88-4.24,4.24-4.24,4.24,1.88,4.24,4.24Z"/><path class="f" d="M250.09,153.71c0,2.35-1.88,4.24-4.24,4.24s-4.24-1.88-4.24-4.24,1.88-4.24,4.24-4.24,4.24,1.88,4.24,4.24Z"/><circle class="f" cx="209.33" cy="134.32" r="4.24"/><path class="f" d="M178.74,88.38c0,2.35-1.88,4.24-4.24,4.24s-4.24-1.88-4.24-4.24,1.88-4.24,4.24-4.24,4.24,1.88,4.24,4.24Z"/><path class="f" d="M210.84,86.22c0,2.35-1.88,4.24-4.24,4.24s-4.24-1.88-4.24-4.24,1.88-4.24,4.24-4.24,4.24,1.88,4.24,4.24Z"/><path class="f" d="M217.8,114.36c0,2.35-1.88,4.24-4.24,4.24s-4.24-1.88-4.24-4.24,1.88-4.24,4.24-4.24,4.24,1.88,4.24,4.24Z"/><path class="f" d="M189.85,115.58c0,2.35-1.88,4.24-4.24,4.24s-4.24-1.88-4.24-4.24,1.88-4.24,4.24-4.24,4.24,1.88,4.24,4.24Z"/><circle class="f" cx="259.88" cy="133.56" r="4.24"/><path class="f" d="M292.26,130.08c0,2.35-1.88,4.24-4.24,4.24s-4.24-1.88-4.24-4.24,1.88-4.24,4.24-4.24,4.24,1.88,4.24,4.24Z"/><path class="f" d="M296.49,76.33c0,2.35-1.88,4.24-4.24,4.24s-4.24-1.88-4.24-4.24,1.88-4.24,4.24-4.24,4.24,1.88,4.24,4.24Z"/><path class="f" d="M361.06,9.22c0,2.35-1.88,4.24-4.24,4.24s-4.24-1.88-4.24-4.24,1.88-4.24,4.24-4.24,4.24,1.88,4.24,4.24Z"/><path class="f" d="M381.3,33.32c0,2.35-1.88,4.24-4.24,4.24s-4.24-1.88-4.24-4.24,1.88-4.24,4.24-4.24,4.24,1.88,4.24,4.24Z"/><circle class="f" cx="399.93" cy="79.06" r="4.24"/><path class="f" d="M412.64,141.28c0,2.35-1.88,4.24-4.24,4.24s-4.24-1.88-4.24-4.24,1.88-4.24,4.24-4.24,4.24,1.88,4.24,4.24Z"/><path class="f" d="M419.14,181.47c0,2.35-1.88,4.24-4.24,4.24s-4.24-1.88-4.24-4.24,1.88-4.24,4.24-4.24,4.24,1.88,4.24,4.24Z"/><path class="f" d="M442.76,145.52c0,2.35-1.88,4.24-4.24,4.24s-4.24-1.88-4.24-4.24,1.88-4.24,4.24-4.24,4.24,1.88,4.24,4.24Z"/><path class="f" d="M469.49,125.56c0,2.35-1.88,4.24-4.24,4.24s-4.24-1.88-4.24-4.24,1.88-4.24,4.24-4.24,4.24,1.88,4.24,4.24Z"/><path class="f" d="M499.33,115.87c0,2.35-1.88,4.24-4.24,4.24s-4.24-1.88-4.24-4.24,1.88-4.24,4.24-4.24,4.24,1.88,4.24,4.24Z"/><path class="f" d="M532.27,155.59c0,2.35-1.88,4.24-4.24,4.24s-4.24-1.88-4.24-4.24,1.88-4.24,4.24-4.24,4.24,1.88,4.24,4.24Z"/><path class="f" d="M515.14,183.73c0,2.35-1.88,4.24-4.24,4.24s-4.24-1.88-4.24-4.24,1.88-4.24,4.24-4.24,4.24,1.88,4.24,4.24Z"/><path class="f" d="M513.64,163.12c0,2.35-1.88,4.24-4.24,4.24s-4.24-1.88-4.24-4.24,1.88-4.24,4.24-4.24,4.24,1.88,4.24,4.24Z"/><path class="f" d="M614.07,199.54c0,2.35-1.88,4.24-4.24,4.24s-4.24-1.88-4.24-4.24,1.88-4.24,4.24-4.24,4.24,1.88,4.24,4.24Z"/><path class="f" d="M629.22,172.34c0,2.35-1.88,4.24-4.24,4.24s-4.24-1.88-4.24-4.24,1.88-4.24,4.24-4.24,4.24,1.88,4.24,4.24Z"/><path class="f" d="M650.87,139.12c0,2.35-1.88,4.24-4.24,4.24s-4.24-1.88-4.24-4.24,1.88-4.24,4.24-4.24,4.24,1.88,4.24,4.24Z"/><path class="f" d="M679.39,119.44c0,2.35-1.88,4.24-4.24,4.24s-4.24-1.88-4.24-4.24,1.88-4.24,4.24-4.24,4.24,1.88,4.24,4.24Z"/><path class="f" d="M711.86,130.08c0,2.35-1.88,4.24-4.24,4.24s-4.24-1.88-4.24-4.24,1.88-4.24,4.24-4.24,4.24,1.88,4.24,4.24Z"/><path class="f" d="M702.83,168.11c0,2.35-1.88,4.24-4.24,4.24s-4.24-1.88-4.24-4.24,1.88-4.24,4.24-4.24,4.24,1.88,4.24,4.24Z"/><path class="f" d="M666.02,163.87c0,2.35-1.88,4.24-4.24,4.24s-4.24-1.88-4.24-4.24,1.88-4.24,4.24-4.24,4.24,1.88,4.24,4.24Z"/><path class="f" d="M655.58,222.6c0,2.35-1.88,4.24-4.24,4.24s-4.24-1.88-4.24-4.24,1.88-4.24,4.24-4.24,4.24,1.88,4.24,4.24Z"/><path class="f" d="M635.72,209.05c0,2.35-1.88,4.24-4.24,4.24s-4.24-1.88-4.24-4.24,1.88-4.24,4.24-4.24,4.24,1.88,4.24,4.24Z"/><path class="f" d="M701.89,204.81c0,2.35-1.88,4.24-4.24,4.24s-4.24-1.88-4.24-4.24,1.88-4.24,4.24-4.24,4.24,1.88,4.24,4.24Z"/><path class="f" d="M658.49,275.31c0,2.35-1.88,4.24-4.24,4.24s-4.24-1.88-4.24-4.24,1.88-4.24,4.24-4.24,4.24,1.88,4.24,4.24Z"/><path class="f" d="M613.22,252.35c0,2.35-1.88,4.24-4.24,4.24s-4.24-1.88-4.24-4.24,1.88-4.24,4.24-4.24,4.24,1.88,4.24,4.24Z"/><path class="f" d="M591.57,271.08c0,2.35-1.88,4.24-4.24,4.24s-4.24-1.88-4.24-4.24,1.88-4.24,4.24-4.24,4.24,1.88,4.24,4.24Z"/><path class="f" d="M564.09,306c0,2.35-1.88,4.24-4.24,4.24s-4.24-1.88-4.24-4.24,1.88-4.24,4.24-4.24,4.24,1.88,4.24,4.24Z"/><circle class="f" cx="559" cy="350.52" r="4.24"/><path class="f" d="M599.76,319.93c0,2.35-1.88,4.24-4.24,4.24s-4.24-1.88-4.24-4.24,1.88-4.24,4.24-4.24,4.24,1.88,4.24,4.24Z"/><path class="f" d="M656.52,364.45c0,2.35-1.88,4.24-4.24,4.24s-4.24-1.88-4.24-4.24,1.88-4.24,4.24-4.24,4.24,1.88,4.24,4.24Z"/><path class="f" d="M703.67,275.31c0,2.35-1.88,4.24-4.24,4.24s-4.24-1.88-4.24-4.24,1.88-4.24,4.24-4.24,4.24,1.88,4.24,4.24Z"/><path class="f" d="M715.91,228.16c0,2.35-1.88,4.24-4.24,4.24s-4.24-1.88-4.24-4.24,1.88-4.24,4.24-4.24,4.24,1.88,4.24,4.24Z"/><path class="f" d="M735.3,283.79c0,2.35-1.88,4.24-4.24,4.24s-4.24-1.88-4.24-4.24,1.88-4.24,4.24-4.24,4.24,1.88,4.24,4.24Z"/><path class="f" d="M774.36,314.19c0,2.35-1.88,4.24-4.24,4.24s-4.24-1.88-4.24-4.24,1.88-4.24,4.24-4.24,4.24,1.88,4.24,4.24Z"/><path class="f" d="M785,347.22c0,2.35-1.88,4.24-4.24,4.24s-4.24-1.88-4.24-4.24,1.88-4.24,4.24-4.24,4.24,1.88,4.24,4.24Z"/><path class="f" d="M816.15,370.19c0,2.35-1.88,4.24-4.24,4.24s-4.24-1.88-4.24-4.24,1.88-4.24,4.24-4.24,4.24,1.88,4.24,4.24Z"/><path class="f" d="M844.67,380.92c0,2.35-1.88,4.24-4.24,4.24s-4.24-1.88-4.24-4.24,1.88-4.24,4.24-4.24,4.24,1.88,4.24,4.24Z"/><path class="f" d="M853.14,414.24c0,2.35-1.88,4.24-4.24,4.24s-4.24-1.88-4.24-4.24,1.88-4.24,4.24-4.24,4.24,1.88,4.24,4.24Z"/><path class="f" d="M872.91,404.36c0,2.35-1.88,4.24-4.24,4.24s-4.24-1.88-4.24-4.24,1.88-4.24,4.24-4.24,4.24,1.88,4.24,4.24Z"/><path class="f" d="M888.16,387.04c0,2.35-1.88,4.24-4.24,4.24s-4.24-1.88-4.24-4.24,1.88-4.24,4.24-4.24,4.24,1.88,4.24,4.24Z"/><path class="f" d="M910.56,357.39c0,2.35-1.88,4.24-4.24,4.24s-4.24-1.88-4.24-4.24,1.88-4.24,4.24-4.24,4.24,1.88,4.24,4.24Z"/><path class="f" d="M924.4,393.91c0,2.35-1.88,4.24-4.24,4.24s-4.24-1.88-4.24-4.24,1.88-4.24,4.24-4.24,4.24,1.88,4.24,4.24Z"/><path class="f" d="M952.16,422.52c0,2.35-1.88,4.24-4.24,4.24s-4.24-1.88-4.24-4.24,1.88-4.24,4.24-4.24,4.24,1.88,4.24,4.24Z"/><path class="f" d="M933.34,459.42c0,2.35-1.88,4.24-4.24,4.24s-4.24-1.88-4.24-4.24,1.88-4.24,4.24-4.24,4.24,1.88,4.24,4.24Z"/><path class="f" d="M937.57,475.7c0,2.35-1.88,4.24-4.24,4.24s-4.24-1.88-4.24-4.24,1.88-4.24,4.24-4.24,4.24,1.88,4.24,4.24Z"/><path class="f" d="M959.03,485.21c0,2.35-1.88,4.24-4.24,4.24s-4.24-1.88-4.24-4.24,1.88-4.24,4.24-4.24,4.24,1.88,4.24,4.24Z"/><path class="f" d="M974.85,474.76c0,2.35-1.88,4.24-4.24,4.24s-4.24-1.88-4.24-4.24,1.88-4.24,4.24-4.24,4.24,1.88,4.24,4.24Z"/><path class="f" d="M996.97,482.2c0,2.35-1.88,4.24-4.24,4.24s-4.24-1.88-4.24-4.24,1.88-4.24,4.24-4.24,4.24,1.88,4.24,4.24Z"/><path class="f" d="M999.79,454.06c0,2.35-1.88,4.24-4.24,4.24s-4.24-1.88-4.24-4.24,1.88-4.24,4.24-4.24,4.24,1.88,4.24,4.24Z"/><path class="f" d="M1061.16,482.2c0,2.35-1.88,4.24-4.24,4.24s-4.24-1.88-4.24-4.24,1.88-4.24,4.24-4.24,4.24,1.88,4.24,4.24Z"/><path class="f" d="M1085.44,482.2c0,2.35-1.88,4.24-4.24,4.24s-4.24-1.88-4.24-4.24,1.88-4.24,4.24-4.24,4.24,1.88,4.24,4.24Z"/><path class="f" d="M1087.89,502.53c0,2.35-1.88,4.24-4.24,4.24s-4.24-1.88-4.24-4.24,1.88-4.24,4.24-4.24,4.24,1.88,4.24,4.24Z"/><path class="f" d="M1104.46,501.59c0,2.35-1.88,4.24-4.24,4.24s-4.24-1.88-4.24-4.24,1.88-4.24,4.24-4.24,4.24,1.88,4.24,4.24Z"/><path class="f" d="M1091.47,538.58c0,2.35-1.88,4.24-4.24,4.24s-4.24-1.88-4.24-4.24,1.88-4.24,4.24-4.24,4.24,1.88,4.24,4.24Z"/><path class="f" d="M1058.15,528.51c0,2.35-1.88,4.24-4.24,4.24s-4.24-1.88-4.24-4.24,1.88-4.24,4.24-4.24,4.24,1.88,4.24,4.24Z"/><path class="f" d="M1019.74,538.58c0,2.35-1.88,4.24-4.24,4.24s-4.24-1.88-4.24-4.24,1.88-4.24,4.24-4.24,4.24,1.88,4.24,4.24Z"/><path class="f" d="M992.64,560.98c0,2.35-1.88,4.24-4.24,4.24s-4.24-1.88-4.24-4.24,1.88-4.24,4.24-4.24,4.24,1.88,4.24,4.24Z"/><path class="f" d="M994.99,591.29c0,2.35-1.88,4.24-4.24,4.24s-4.24-1.88-4.24-4.24,1.88-4.24,4.24-4.24,4.24,1.88,4.24,4.24Z"/><path class="f" d="M1029.34,593.45c0,2.35-1.88,4.24-4.24,4.24s-4.24-1.88-4.24-4.24,1.88-4.24,4.24-4.24,4.24,1.88,4.24,4.24Z"/><path class="f" d="M1065.11,595.53c0,2.35-1.88,4.24-4.24,4.24s-4.24-1.88-4.24-4.24,1.88-4.24,4.24-4.24,4.24,1.88,4.24,4.24Z"/><path class="f" d="M1083.65,608.98c0,2.35-1.88,4.24-4.24,4.24s-4.24-1.88-4.24-4.24,1.88-4.24,4.24-4.24,4.24,1.88,4.24,4.24Z"/><path class="f" d="M1099.28,617.46c0,2.35-1.88,4.24-4.24,4.24s-4.24-1.88-4.24-4.24,1.88-4.24,4.24-4.24,4.24,1.88,4.24,4.24Z"/><path class="f" d="M1118.29,599.76c0,2.35-1.88,4.24-4.24,4.24s-4.24-1.88-4.24-4.24,1.88-4.24,4.24-4.24,4.24,1.88,4.24,4.24Z"/><path class="f" d="M1120.74,571.43c0,2.35-1.88,4.24-4.24,4.24s-4.24-1.88-4.24-4.24,1.88-4.24,4.24-4.24,4.24,1.88,4.24,4.24Z"/><circle class="f" cx="1091.47" cy="556.75" r="4.24"/><path class="f" d="M1061.16,562.96c0,2.35-1.88,4.24-4.24,4.24s-4.24-1.88-4.24-4.24,1.88-4.24,4.24-4.24,4.24,1.88,4.24,4.24Z"/><path class="f" d="M1028.21,567.19c0,2.35-1.88,4.24-4.24,4.24s-4.24-1.88-4.24-4.24,1.88-4.24,4.24-4.24,4.24,1.88,4.24,4.24Z"/><path class="f" d="M1041.11,542.82c0,2.35-1.88,4.24-4.24,4.24s-4.24-1.88-4.24-4.24,1.88-4.24,4.24-4.24,4.24,1.88,4.24,4.24Z"/><path class="f" d="M1089.68,587.05c0,2.35-1.88,4.24-4.24,4.24s-4.24-1.88-4.24-4.24,1.88-4.24,4.24-4.24,4.24,1.88,4.24,4.24Z"/><path class="f" d="M1009.3,575.66c0,2.35-1.88,4.24-4.24,4.24s-4.24-1.88-4.24-4.24,1.88-4.24,4.24-4.24,4.24,1.88,4.24,4.24Z"/><path class="f" d="M972.21,385.16c0,2.35-1.88,4.24-4.24,4.24s-4.24-1.88-4.24-4.24,1.88-4.24,4.24-4.24,4.24,1.88,4.24,4.24Z"/><path class="f" d="M1003.18,374.43c0,2.35-1.88,4.24-4.24,4.24s-4.24-1.88-4.24-4.24,1.88-4.24,4.24-4.24,4.24,1.88,4.24,4.24Z"/><path class="f" d="M1004.03,340.73c0,2.35-1.88,4.24-4.24,4.24s-4.24-1.88-4.24-4.24,1.88-4.24,4.24-4.24,4.24,1.88,4.24,4.24Z"/><path class="f" d="M1023.98,304.4c0,2.35-1.88,4.24-4.24,4.24s-4.24-1.88-4.24-4.24,1.88-4.24,4.24-4.24,4.24,1.88,4.24,4.24Z"/><path class="f" d="M1068.03,288.02c0,2.35-1.88,4.24-4.24,4.24s-4.24-1.88-4.24-4.24,1.88-4.24,4.24-4.24,4.24,1.88,4.24,4.24Z"/><path class="f" d="M1079.32,254.23c0,2.35-1.88,4.24-4.24,4.24s-4.24-1.88-4.24-4.24,1.88-4.24,4.24-4.24,4.24,1.88,4.24,4.24Z"/><path class="f" d="M1075.09,218.09c0,2.35-1.88,4.24-4.24,4.24s-4.24-1.88-4.24-4.24,1.88-4.24,4.24-4.24,4.24,1.88,4.24,4.24Z"/><path class="f" d="M1118.2,195.78c0,2.35-1.88,4.24-4.24,4.24s-4.24-1.88-4.24-4.24,1.88-4.24,4.24-4.24,4.24,1.88,4.24,4.24Z"/><path class="f" d="M1145.78,181c0,2.35-1.88,4.24-4.24,4.24s-4.24-1.88-4.24-4.24,1.88-4.24,4.24-4.24,4.24,1.88,4.24,4.24Z"/><path class="f" d="M1200.18,183.82c0,2.35-1.88,4.24-4.24,4.24s-4.24-1.88-4.24-4.24,1.88-4.24,4.24-4.24,4.24,1.88,4.24,4.24Z"/><path class="f" d="M1148.32,251.88c0,2.35-1.88,4.24-4.24,4.24s-4.24-1.88-4.24-4.24,1.88-4.24,4.24-4.24,4.24,1.88,4.24,4.24Z"/><path class="f" d="M1202.06,143.54c0,2.35-1.88,4.24-4.24,4.24s-4.24-1.88-4.24-4.24,1.88-4.24,4.24-4.24,4.24,1.88,4.24,4.24Z"/><path class="f" d="M1260.61,147.78c0,2.35-1.88,4.24-4.24,4.24s-4.24-1.88-4.24-4.24,1.88-4.24,4.24-4.24,4.24,1.88,4.24,4.24Z"/><path class="f" d="M1204.42,118.6c0,2.35-1.88,4.24-4.24,4.24s-4.24-1.88-4.24-4.24,1.88-4.24,4.24-4.24,4.24,1.88,4.24,4.24Z"/><path class="f" d="M1163.1,122.83c0,2.35-1.88,4.24-4.24,4.24s-4.24-1.88-4.24-4.24,1.88-4.24,4.24-4.24,4.24,1.88,4.24,4.24Z"/><path class="f" d="M1119.99,103.07c0,2.35-1.88,4.24-4.24,4.24s-4.24-1.88-4.24-4.24,1.88-4.24,4.24-4.24,4.24,1.88,4.24,4.24Z"/><path class="f" d="M1060.88,104.2c0,2.35-1.88,4.24-4.24,4.24s-4.24-1.88-4.24-4.24,1.88-4.24,4.24-4.24,4.24,1.88,4.24,4.24Z"/><path class="f" d="M1031.04,77.84c0,2.35-1.88,4.24-4.24,4.24s-4.24-1.88-4.24-4.24,1.88-4.24,4.24-4.24,4.24,1.88,4.24,4.24Z"/><path class="f" d="M1000.73,77.84c0,2.35-1.88,4.24-4.24,4.24s-4.24-1.88-4.24-4.24,1.88-4.24,4.24-4.24,4.24,1.88,4.24,4.24Z"/><path class="f" d="M961.29,74.92c0,2.35-1.88,4.24-4.24,4.24s-4.24-1.88-4.24-4.24,1.88-4.24,4.24-4.24,4.24,1.88,4.24,4.24Z"/><path class="f" d="M983.69,44.71c0,2.35-1.88,4.24-4.24,4.24s-4.24-1.88-4.24-4.24,1.88-4.24,4.24-4.24,4.24,1.88,4.24,4.24Z"/><path class="f" d="M957.06,24.28c0,2.35-1.88,4.24-4.24,4.24s-4.24-1.88-4.24-4.24,1.88-4.24,4.24-4.24,4.24,1.88,4.24,4.24Z"/><path class="f" d="M908.3,54.03c0,2.35-1.88,4.24-4.24,4.24s-4.24-1.88-4.24-4.24,1.88-4.24,4.24-4.24,4.24,1.88,4.24,4.24Z"/><path class="f" d="M891.17,86.97c0,2.35-1.88,4.24-4.24,4.24s-4.24-1.88-4.24-4.24,1.88-4.24,4.24-4.24,4.24,1.88,4.24,4.24Z"/><path class="f" d="M871.12,99.87c0,2.35-1.88,4.24-4.24,4.24s-4.24-1.88-4.24-4.24,1.88-4.24,4.24-4.24,4.24,1.88,4.24,4.24Z"/><path class="f" d="M858.13,113.33c0,2.35-1.88,4.24-4.24,4.24s-4.24-1.88-4.24-4.24,1.88-4.24,4.24-4.24,4.24,1.88,4.24,4.24Z"/><path class="f" d="M866.89,143.35c0,2.35-1.88,4.24-4.24,4.24s-4.24-1.88-4.24-4.24,1.88-4.24,4.24-4.24,4.24,1.88,4.24,4.24Z"/><path class="f" d="M820.11,132.9c0,2.35-1.88,4.24-4.24,4.24s-4.24-1.88-4.24-4.24,1.88-4.24,4.24-4.24,4.24,1.88,4.24,4.24Z"/><path class="f" d="M774.36,134.88c0,2.35-1.88,4.24-4.24,4.24s-4.24-1.88-4.24-4.24,1.88-4.24,4.24-4.24,4.24,1.88,4.24,4.24Z"/><path class="f" d="M740.19,161.05c0,2.35-1.88,4.24-4.24,4.24s-4.24-1.88-4.24-4.24,1.88-4.24,4.24-4.24,4.24,1.88,4.24,4.24Z"/><path class="f" d="M785,93.65c0,2.35-1.88,4.24-4.24,4.24s-4.24-1.88-4.24-4.24,1.88-4.24,4.24-4.24,4.24,1.88,4.24,4.24Z"/><path class="f" d="M789.23,59.77c0,2.35-1.88,4.24-4.24,4.24s-4.24-1.88-4.24-4.24,1.88-4.24,4.24-4.24,4.24,1.88,4.24,4.24Z"/><path class="f" d="M828.58,31.16c0,2.35-1.88,4.24-4.24,4.24s-4.24-1.88-4.24-4.24,1.88-4.24,4.24-4.24,4.24,1.88,4.24,4.24Z"/><path class="f" d="M756.01,200.58c0,2.35-1.88,4.24-4.24,4.24s-4.24-1.88-4.24-4.24,1.88-4.24,4.24-4.24,4.24,1.88,4.24,4.24Z"/><path class="f" d="M767.68,258.75c0,2.35-1.88,4.24-4.24,4.24s-4.24-1.88-4.24-4.24,1.88-4.24,4.24-4.24,4.24,1.88,4.24,4.24Z"/><path class="f" d="M793.47,195.31c0,2.35-1.88,4.24-4.24,4.24s-4.24-1.88-4.24-4.24,1.88-4.24,4.24-4.24,4.24,1.88,4.24,4.24Z"/><path class="f" d="M781.99,229.85c0,2.35-1.88,4.24-4.24,4.24s-4.24-1.88-4.24-4.24,1.88-4.24,4.24-4.24,4.24,1.88,4.24,4.24Z"/><path class="f" d="M749.14,233.52c0,2.35-1.88,4.24-4.24,4.24s-4.24-1.88-4.24-4.24,1.88-4.24,4.24-4.24,4.24,1.88,4.24,4.24Z"/><path class="f" d="M777.94,163.87c0,2.35-1.88,4.24-4.24,4.24s-4.24-1.88-4.24-4.24,1.88-4.24,4.24-4.24,4.24,1.88,4.24,4.24Z"/><path class="f" d="M828.58,175.26c0,2.35-1.88,4.24-4.24,4.24s-4.24-1.88-4.24-4.24,1.88-4.24,4.24-4.24,4.24,1.88,4.24,4.24Z"/><path class="f" d="M811.26,249.99c0,2.35-1.88,4.24-4.24,4.24s-4.24-1.88-4.24-4.24,1.88-4.24,4.24-4.24,4.24,1.88,4.24,4.24Z"/><path class="f" d="M885.43,172.34c0,2.35-1.88,4.24-4.24,4.24s-4.24-1.88-4.24-4.24,1.88-4.24,4.24-4.24,4.24,1.88,4.24,4.24Z"/><path class="f" d="M899.64,218.37c0,2.35-1.88,4.24-4.24,4.24s-4.24-1.88-4.24-4.24,1.88-4.24,4.24-4.24,4.24,1.88,4.24,4.24Z"/><path class="f" d="M945.57,165.28c0,2.35-1.88,4.24-4.24,4.24s-4.24-1.88-4.24-4.24,1.88-4.24,4.24-4.24,4.24,1.88,4.24,4.24Z"/><path class="f" d="M926.37,121.7c0,2.35-1.88,4.24-4.24,4.24s-4.24-1.88-4.24-4.24,1.88-4.24,4.24-4.24,4.24,1.88,4.24,4.24Z"/><path class="f" d="M928.54,70.69c0,2.35-1.88,4.24-4.24,4.24s-4.24-1.88-4.24-4.24,1.88-4.24,4.24-4.24,4.24,1.88,4.24,4.24Z"/><path class="f" d="M904.06,176.58c0,2.35-1.88,4.24-4.24,4.24s-4.24-1.88-4.24-4.24,1.88-4.24,4.24-4.24,4.24,1.88,4.24,4.24Z"/><path class="f" d="M838.37,209.05c0,2.35-1.88,4.24-4.24,4.24s-4.24-1.88-4.24-4.24,1.88-4.24,4.24-4.24,4.24,1.88,4.24,4.24Z"/><path class="f" d="M849.76,175.26c0,2.35-1.88,4.24-4.24,4.24s-4.24-1.88-4.24-4.24,1.88-4.24,4.24-4.24,4.24,1.88,4.24,4.24Z"/><path class="f" d="M862.65,252.63c0,2.35-1.88,4.24-4.24,4.24s-4.24-1.88-4.24-4.24,1.88-4.24,4.24-4.24,4.24,1.88,4.24,4.24Z"/><path class="f" d="M835.64,272.96c0,2.35-1.88,4.24-4.24,4.24s-4.24-1.88-4.24-4.24,1.88-4.24,4.24-4.24,4.24,1.88,4.24,4.24Z"/><path class="f" d="M831.4,245.76c0,2.35-1.88,4.24-4.24,4.24s-4.24-1.88-4.24-4.24,1.88-4.24,4.24-4.24,4.24,1.88,4.24,4.24Z"/><path class="f" d="M793.47,302.05c0,2.35-1.88,4.24-4.24,4.24s-4.24-1.88-4.24-4.24,1.88-4.24,4.24-4.24,4.24,1.88,4.24,4.24Z"/><path class="f" d="M862.37,300.92c0,2.35-1.88,4.24-4.24,4.24s-4.24-1.88-4.24-4.24,1.88-4.24,4.24-4.24,4.24,1.88,4.24,4.24Z"/><path class="f" d="M945.57,234.65c0,2.35-1.88,4.24-4.24,4.24s-4.24-1.88-4.24-4.24,1.88-4.24,4.24-4.24,4.24,1.88,4.24,4.24Z"/><path class="f" d="M992.26,143.35c0,2.35-1.88,4.24-4.24,4.24s-4.24-1.88-4.24-4.24,1.88-4.24,4.24-4.24,4.24,1.88,4.24,4.24Z"/><path class="f" d="M965.53,112.67c0,2.35-1.88,4.24-4.24,4.24s-4.24-1.88-4.24-4.24,1.88-4.24,4.24-4.24,4.24,1.88,4.24,4.24Z"/><path class="f" d="M975.22,214.7c0,2.35-1.88,4.24-4.24,4.24s-4.24-1.88-4.24-4.24,1.88-4.24,4.24-4.24,4.24,1.88,4.24,4.24Z"/><path class="f" d="M949.53,337.44c0,2.35-1.88,4.24-4.24,4.24s-4.24-1.88-4.24-4.24,1.88-4.24,4.24-4.24,4.24,1.88,4.24,4.24Z"/><path class="f" d="M943.69,292.26c0,2.35-1.88,4.24-4.24,4.24s-4.24-1.88-4.24-4.24,1.88-4.24,4.24-4.24,4.24,1.88,4.24,4.24Z"/><path class="f" d="M896.72,319.83c0,2.35-1.88,4.24-4.24,4.24s-4.24-1.88-4.24-4.24,1.88-4.24,4.24-4.24,4.24,1.88,4.24,4.24Z"/><path class="f" d="M994.71,272.96c0,2.35-1.88,4.24-4.24,4.24s-4.24-1.88-4.24-4.24,1.88-4.24,4.24-4.24,4.24,1.88,4.24,4.24Z"/><path class="f" d="M1015.51,230.42c0,2.35-1.88,4.24-4.24,4.24s-4.24-1.88-4.24-4.24,1.88-4.24,4.24-4.24,4.24,1.88,4.24,4.24Z"/><path class="f" d="M1044.97,165.28c0,2.35-1.88,4.24-4.24,4.24s-4.24-1.88-4.24-4.24,1.88-4.24,4.24-4.24,4.24,1.88,4.24,4.24Z"/><path class="f" d="M1004.97,186.65c0,2.35-1.88,4.24-4.24,4.24s-4.24-1.88-4.24-4.24,1.88-4.24,4.24-4.24,4.24,1.88,4.24,4.24Z"/><path class="f" d="M1019.74,127.07c0,2.35-1.88,4.24-4.24,4.24s-4.24-1.88-4.24-4.24,1.88-4.24,4.24-4.24,4.24,1.88,4.24,4.24Z"/><path class="f" d="M1119.99,149.09c0,2.35-1.88,4.24-4.24,4.24s-4.24-1.88-4.24-4.24,1.88-4.24,4.24-4.24,4.24,1.88,4.24,4.24Z"/><path class="f" d="M1079.32,169.52c0,2.35-1.88,4.24-4.24,4.24s-4.24-1.88-4.24-4.24,1.88-4.24,4.24-4.24,4.24,1.88,4.24,4.24Z"/><path class="f" d="M1079.32,131.3c0,2.35-1.88,4.24-4.24,4.24s-4.24-1.88-4.24-4.24,1.88-4.24,4.24-4.24,4.24,1.88,4.24,4.24Z"/><circle class="f" cx="1091.56" cy="86.97" r="4.24"/><path class="f" d="M708.85,371.7c0,2.35-1.88,4.24-4.24,4.24s-4.24-1.88-4.24-4.24,1.88-4.24,4.24-4.24,4.24,1.88,4.24,4.24Z"/><path class="f" d="M677.51,314.85c0,2.35-1.88,4.24-4.24,4.24s-4.24-1.88-4.24-4.24,1.88-4.24,4.24-4.24,4.24,1.88,4.24,4.24Z"/><path class="f" d="M618.3,391.37c0,2.35-1.88,4.24-4.24,4.24s-4.24-1.88-4.24-4.24,1.88-4.24,4.24-4.24,4.24,1.88,4.24,4.24Z"/><path class="f" d="M595.43,357.77c0,2.35-1.88,4.24-4.24,4.24s-4.24-1.88-4.24-4.24,1.88-4.24,4.24-4.24,4.24,1.88,4.24,4.24Z"/><path class="f" d="M568.04,381.39c0,2.35-1.88,4.24-4.24,4.24s-4.24-1.88-4.24-4.24,1.88-4.24,4.24-4.24,4.24,1.88,4.24,4.24Z"/><path class="f" d="M539.62,382.24c0,2.35-1.88,4.24-4.24,4.24s-4.24-1.88-4.24-4.24,1.88-4.24,4.24-4.24,4.24,1.88,4.24,4.24Z"/><path class="f" d="M531.71,414.24c0,2.35-1.88,4.24-4.24,4.24s-4.24-1.88-4.24-4.24,1.88-4.24,4.24-4.24,4.24,1.88,4.24,4.24Z"/><path class="f" d="M546.58,442.86c0,2.35-1.88,4.24-4.24,4.24s-4.24-1.88-4.24-4.24,1.88-4.24,4.24-4.24,4.24,1.88,4.24,4.24Z"/><path class="f" d="M590.91,441.07c0,2.35-1.88,4.24-4.24,4.24s-4.24-1.88-4.24-4.24,1.88-4.24,4.24-4.24,4.24,1.88,4.24,4.24Z"/><path class="f" d="M625.36,473.54c0,2.35-1.88,4.24-4.24,4.24s-4.24-1.88-4.24-4.24,1.88-4.24,4.24-4.24,4.24,1.88,4.24,4.24Z"/><path class="f" d="M630.26,527.66c0,2.35-1.88,4.24-4.24,4.24s-4.24-1.88-4.24-4.24,1.88-4.24,4.24-4.24,4.24,1.88,4.24,4.24Z"/><circle class="f" cx="637.98" cy="570.77" r="4.24"/><circle class="f" cx="674.78" cy="590.91" r="4.24"/><circle class="f" cx="695.2" cy="557.12" r="4.24"/><path class="f" d="M716.29,516.55c0,2.35-1.88,4.24-4.24,4.24s-4.24-1.88-4.24-4.24,1.88-4.24,4.24-4.24,4.24,1.88,4.24,4.24Z"/><path class="f" d="M732.19,459.42c0,2.35-1.88,4.24-4.24,4.24s-4.24-1.88-4.24-4.24,1.88-4.24,4.24-4.24,4.24,1.88,4.24,4.24Z"/><path class="f" d="M756.48,435.04c0,2.35-1.88,4.24-4.24,4.24s-4.24-1.88-4.24-4.24,1.88-4.24,4.24-4.24,4.24,1.88,4.24,4.24Z"/><path class="f" d="M741.79,414.24c0,2.35-1.88,4.24-4.24,4.24s-4.24-1.88-4.24-4.24,1.88-4.24,4.24-4.24,4.24,1.88,4.24,4.24Z"/><path class="f" d="M775.96,397.49c0,2.35-1.88,4.24-4.24,4.24s-4.24-1.88-4.24-4.24,1.88-4.24,4.24-4.24,4.24,1.88,4.24,4.24Z"/><path class="f" d="M774.17,378c0,2.35-1.88,4.24-4.24,4.24s-4.24-1.88-4.24-4.24,1.88-4.24,4.24-4.24,4.24,1.88,4.24,4.24Z"/><path class="f" d="M749.14,353.15c0,2.35-1.88,4.24-4.24,4.24s-4.24-1.88-4.24-4.24,1.88-4.24,4.24-4.24,4.24,1.88,4.24,4.24Z"/><path class="f" d="M728.81,314.19c0,2.35-1.88,4.24-4.24,4.24s-4.24-1.88-4.24-4.24,1.88-4.24,4.24-4.24,4.24,1.88,4.24,4.24Z"/><path class="f" d="M683.25,404.36c0,2.35-1.88,4.24-4.24,4.24s-4.24-1.88-4.24-4.24,1.88-4.24,4.24-4.24,4.24,1.88,4.24,4.24Z"/><path class="f" d="M637.13,416.03c0,2.35-1.88,4.24-4.24,4.24s-4.24-1.88-4.24-4.24,1.88-4.24,4.24-4.24,4.24,1.88,4.24,4.24Z"/><path class="f" d="M578.49,409.54c0,2.35-1.88,4.24-4.24,4.24s-4.24-1.88-4.24-4.24,1.88-4.24,4.24-4.24,4.24,1.88,4.24,4.24Z"/><path class="f" d="M674.68,477.02c0,2.35-1.88,4.24-4.24,4.24s-4.24-1.88-4.24-4.24,1.88-4.24,4.24-4.24,4.24,1.88,4.24,4.24Z"/><circle class="f" cx="664.8" cy="533.97" r="4.24"/><path class="f" d="M697.65,435.51c0,2.35-1.88,4.24-4.24,4.24s-4.24-1.88-4.24-4.24,1.88-4.24,4.24-4.24,4.24,1.88,4.24,4.24Z"/><path class="f" d="M737.46,379.6c0,2.35-1.88,4.24-4.24,4.24s-4.24-1.88-4.24-4.24,1.88-4.24,4.24-4.24,4.24,1.88,4.24,4.24Z"/><path class="f" d="M491.89,85.65c0,2.35-1.88,4.24-4.24,4.24s-4.24-1.88-4.24-4.24,1.88-4.24,4.24-4.24,4.24,1.88,4.24,4.24Z"/><path class="f" d="M506.3,56.85c0,2.35-1.88,4.24-4.24,4.24s-4.24-1.88-4.24-4.24,1.88-4.24,4.24-4.24,4.24,1.88,4.24,4.24Z"/><path class="f" d="M510.53,16c0,2.35-1.88,4.24-4.24,4.24s-4.24-1.88-4.24-4.24,1.88-4.24,4.24-4.24,4.24,1.88,4.24,4.24Z"/><path class="f" d="M454.43,4.24c0,2.35-1.88,4.24-4.24,4.24s-4.24-1.88-4.24-4.24,1.88-4.24,4.24-4.24,4.24,1.88,4.24,4.24Z"/><path class="f" d="M403.42,8.47c0,2.35-1.88,4.24-4.24,4.24s-4.24-1.88-4.24-4.24,1.88-4.24,4.24-4.24,4.24,1.88,4.24,4.24Z"/><path class="f" d="M441.44,38.4c0,2.35-1.88,4.24-4.24,4.24s-4.24-1.88-4.24-4.24,1.88-4.24,4.24-4.24,4.24,1.88,4.24,4.24Z"/><path class="f" d="M410.95,49.98c0,2.35-1.88,4.24-4.24,4.24s-4.24-1.88-4.24-4.24,1.88-4.24,4.24-4.24,4.24,1.88,4.24,4.24Z"/><path class="f" d="M442.76,85.65c0,2.35-1.88,4.24-4.24,4.24s-4.24-1.88-4.24-4.24,1.88-4.24,4.24-4.24,4.24,1.88,4.24,4.24Z"/><path class="f" d="M475.61,42.73c0,2.35-1.88,4.24-4.24,4.24s-4.24-1.88-4.24-4.24,1.88-4.24,4.24-4.24,4.24,1.88,4.24,4.24Z"/><circle class="f" cx="432.97" cy="112.38" r="4.24"/><path class="f" d="M466.2,76.62c0,2.35-1.88,4.24-4.24,4.24s-4.24-1.88-4.24-4.24,1.88-4.24,4.24-4.24,4.24,1.88,4.24,4.24Z"/><path class="f" d="M293.39,105.7c0,2.35-1.88,4.24-4.24,4.24s-4.24-1.88-4.24-4.24,1.88-4.24,4.24-4.24,4.24,1.88,4.24,4.24Z"/><path class="f" d="M326.61,110.03c0,2.35-1.88,4.24-4.24,4.24s-4.24-1.88-4.24-4.24,1.88-4.24,4.24-4.24,4.24,1.88,4.24,4.24Z"/><path class="f" d="M331.88,156.34c0,2.35-1.88,4.24-4.24,4.24s-4.24-1.88-4.24-4.24,1.88-4.24,4.24-4.24,4.24,1.88,4.24,4.24Z"/><path class="f" d="M360.31,146.65c0,2.35-1.88,4.24-4.24,4.24s-4.24-1.88-4.24-4.24,1.88-4.24,4.24-4.24,4.24,1.88,4.24,4.24Z"/><path class="f" d="M348.54,169.52c0,2.35-1.88,4.24-4.24,4.24s-4.24-1.88-4.24-4.24,1.88-4.24,4.24-4.24,4.24,1.88,4.24,4.24Z"/><path class="f" d="M245.85,181.75c0,2.35-1.88,4.24-4.24,4.24s-4.24-1.88-4.24-4.24,1.88-4.24,4.24-4.24,4.24,1.88,4.24,4.24Z"/><path class="f" d="M205,201.71c0,2.35-1.88,4.24-4.24,4.24s-4.24-1.88-4.24-4.24,1.88-4.24,4.24-4.24,4.24,1.88,4.24,4.24Z"/><path class="f" d="M152.76,284.63c0,2.35-1.88,4.24-4.24,4.24s-4.24-1.88-4.24-4.24,1.88-4.24,4.24-4.24,4.24,1.88,4.24,4.24Z"/><path class="f" d="M161.24,322.09c0,2.35-1.88,4.24-4.24,4.24s-4.24-1.88-4.24-4.24,1.88-4.24,4.24-4.24,4.24,1.88,4.24,4.24Z"/><path class="f" d="M195.5,280.49c0,2.35-1.88,4.24-4.24,4.24s-4.24-1.88-4.24-4.24,1.88-4.24,4.24-4.24,4.24,1.88,4.24,4.24Z"/><path class="f" d="M197.76,346.28c0,2.35-1.88,4.24-4.24,4.24s-4.24-1.88-4.24-4.24,1.88-4.24,4.24-4.24,4.24,1.88,4.24,4.24Z"/><path class="f" d="M223.45,300.35c0,2.35-1.88,4.24-4.24,4.24s-4.24-1.88-4.24-4.24,1.88-4.24,4.24-4.24,4.24,1.88,4.24,4.24Z"/><path class="f" d="M223.45,234.84c0,2.35-1.88,4.24-4.24,4.24s-4.24-1.88-4.24-4.24,1.88-4.24,4.24-4.24,4.24,1.88,4.24,4.24Z"/><path class="f" d="M274.28,236.35c0,2.35-1.88,4.24-4.24,4.24s-4.24-1.88-4.24-4.24,1.88-4.24,4.24-4.24,4.24,1.88,4.24,4.24Z"/><path class="f" d="M302.89,263.55c0,2.35-1.88,4.24-4.24,4.24s-4.24-1.88-4.24-4.24,1.88-4.24,4.24-4.24,4.24,1.88,4.24,4.24Z"/><path class="f" d="M318.42,225.71c0,2.35-1.88,4.24-4.24,4.24s-4.24-1.88-4.24-4.24,1.88-4.24,4.24-4.24,4.24,1.88,4.24,4.24Z"/><path class="f" d="M318.42,185.99c0,2.35-1.88,4.24-4.24,4.24s-4.24-1.88-4.24-4.24,1.88-4.24,4.24-4.24,4.24,1.88,4.24,4.24Z"/><path class="f" d="M338.38,211.4c0,2.35-1.88,4.24-4.24,4.24s-4.24-1.88-4.24-4.24,1.88-4.24,4.24-4.24,4.24,1.88,4.24,4.24Z"/><path class="f" d="M365.96,222.98c0,2.35-1.88,4.24-4.24,4.24s-4.24-1.88-4.24-4.24,1.88-4.24,4.24-4.24,4.24,1.88,4.24,4.24Z"/><circle class="f" cx="376.5" cy="247.08" r="4.24"/><path class="f" d="M338.38,270.14c0,2.35-1.88,4.24-4.24,4.24s-4.24-1.88-4.24-4.24,1.88-4.24,4.24-4.24,4.24,1.88,4.24,4.24Z"/><path class="f" d="M314.19,288.87c0,2.35-1.88,4.24-4.24,4.24s-4.24-1.88-4.24-4.24,1.88-4.24,4.24-4.24,4.24,1.88,4.24,4.24Z"/><circle class="f" cx="290" cy="280.4" r="4.24"/><path class="f" d="M324.73,297.9c0,2.35-1.88,4.24-4.24,4.24s-4.24-1.88-4.24-4.24,1.88-4.24,4.24-4.24,4.24,1.88,4.24,4.24Z"/><path class="f" d="M317.29,309.1c0,2.35-1.88,4.24-4.24,4.24s-4.24-1.88-4.24-4.24,1.88-4.24,4.24-4.24,4.24,1.88,4.24,4.24Z"/><path class="f" d="M305.43,334.61c0,2.35-1.88,4.24-4.24,4.24s-4.24-1.88-4.24-4.24,1.88-4.24,4.24-4.24,4.24,1.88,4.24,4.24Z"/><path class="f" d="M267.78,347.51c0,2.35-1.88,4.24-4.24,4.24s-4.24-1.88-4.24-4.24,1.88-4.24,4.24-4.24,4.24,1.88,4.24,4.24Z"/><path class="f" d="M237.95,362.28c0,2.35-1.88,4.24-4.24,4.24s-4.24-1.88-4.24-4.24,1.88-4.24,4.24-4.24,4.24,1.88,4.24,4.24Z"/><path class="f" d="M236.06,396.55c0,2.35-1.88,4.24-4.24,4.24s-4.24-1.88-4.24-4.24,1.88-4.24,4.24-4.24,4.24,1.88,4.24,4.24Z"/><path class="f" d="M264.11,413.58c0,2.35-1.88,4.24-4.24,4.24s-4.24-1.88-4.24-4.24,1.88-4.24,4.24-4.24,4.24,1.88,4.24,4.24Z"/><path class="f" d="M285.95,432.88c0,2.35-1.88,4.24-4.24,4.24s-4.24-1.88-4.24-4.24,1.88-4.24,4.24-4.24,4.24,1.88,4.24,4.24Z"/><path class="f" d="M317.29,445.4c0,2.35-1.88,4.24-4.24,4.24s-4.24-1.88-4.24-4.24,1.88-4.24,4.24-4.24,4.24,1.88,4.24,4.24Z"/><path class="f" d="M340.54,437.11c0,2.35-1.88,4.24-4.24,4.24s-4.24-1.88-4.24-4.24,1.88-4.24,4.24-4.24,4.24,1.88,4.24,4.24Z"/><path class="f" d="M356.45,446.06c0,2.35-1.88,4.24-4.24,4.24s-4.24-1.88-4.24-4.24,1.88-4.24,4.24-4.24,4.24,1.88,4.24,4.24Z"/><path class="f" d="M372.92,450.57c0,2.35-1.88,4.24-4.24,4.24s-4.24-1.88-4.24-4.24,1.88-4.24,4.24-4.24,4.24,1.88,4.24,4.24Z"/><path class="f" d="M400.22,466.2c0,2.35-1.88,4.24-4.24,4.24s-4.24-1.88-4.24-4.24,1.88-4.24,4.24-4.24,4.24,1.88,4.24,4.24Z"/><path class="f" d="M306.85,479.19c0,2.35-1.88,4.24-4.24,4.24s-4.24-1.88-4.24-4.24,1.88-4.24,4.24-4.24,4.24,1.88,4.24,4.24Z"/><path class="f" d="M319.36,519.57c0,2.35-1.88,4.24-4.24,4.24s-4.24-1.88-4.24-4.24,1.88-4.24,4.24-4.24,4.24,1.88,4.24,4.24Z"/><path class="f" d="M349.86,552.79c0,2.35-1.88,4.24-4.24,4.24s-4.24-1.88-4.24-4.24,1.88-4.24,4.24-4.24,4.24,1.88,4.24,4.24Z"/><path class="f" d="M334.89,590.72c0,2.35-1.88,4.24-4.24,4.24s-4.24-1.88-4.24-4.24,1.88-4.24,4.24-4.24,4.24,1.88,4.24,4.24Z"/><path class="f" d="M325.86,637.13c0,2.35-1.88,4.24-4.24,4.24s-4.24-1.88-4.24-4.24,1.88-4.24,4.24-4.24,4.24,1.88,4.24,4.24Z"/><path class="f" d="M322.75,677.23c0,2.35-1.88,4.24-4.24,4.24s-4.24-1.88-4.24-4.24,1.88-4.24,4.24-4.24,4.24,1.88,4.24,4.24Z"/><path class="f" d="M334.89,708c0,2.35-1.88,4.24-4.24,4.24s-4.24-1.88-4.24-4.24,1.88-4.24,4.24-4.24,4.24,1.88,4.24,4.24Z"/><path class="f" d="M343.55,668.47c0,2.35-1.88,4.24-4.24,4.24s-4.24-1.88-4.24-4.24,1.88-4.24,4.24-4.24,4.24,1.88,4.24,4.24Z"/><path class="f" d="M347.79,628.66c0,2.35-1.88,4.24-4.24,4.24s-4.24-1.88-4.24-4.24,1.88-4.24,4.24-4.24,4.24,1.88,4.24,4.24Z"/><path class="f" d="M368.69,609.36c0,2.35-1.88,4.24-4.24,4.24s-4.24-1.88-4.24-4.24,1.88-4.24,4.24-4.24,4.24,1.88,4.24,4.24Z"/><path class="f" d="M380.73,594.96c0,2.35-1.88,4.24-4.24,4.24s-4.24-1.88-4.24-4.24,1.88-4.24,4.24-4.24,4.24,1.88,4.24,4.24Z"/><path class="f" d="M395.98,586.4c0,2.35-1.88,4.24-4.24,4.24s-4.24-1.88-4.24-4.24,1.88-4.24,4.24-4.24,4.24,1.88,4.24,4.24Z"/><path class="f" d="M405.86,557.59c0,2.35-1.88,4.24-4.24,4.24s-4.24-1.88-4.24-4.24,1.88-4.24,4.24-4.24,4.24,1.88,4.24,4.24Z"/><path class="f" d="M423,548.56c0,2.35-1.88,4.24-4.24,4.24s-4.24-1.88-4.24-4.24,1.88-4.24,4.24-4.24,4.24,1.88,4.24,4.24Z"/><path class="f" d="M437.77,523.8c0,2.35-1.88,4.24-4.24,4.24s-4.24-1.88-4.24-4.24,1.88-4.24,4.24-4.24,4.24,1.88,4.24,4.24Z"/><path class="f" d="M433.54,487.38c0,2.35-1.88,4.24-4.24,4.24s-4.24-1.88-4.24-4.24,1.88-4.24,4.24-4.24,4.24,1.88,4.24,4.24Z"/><path class="f" d="M362.57,477.49c0,2.35-1.88,4.24-4.24,4.24s-4.24-1.88-4.24-4.24,1.88-4.24,4.24-4.24,4.24,1.88,4.24,4.24Z"/><path class="f" d="M324.54,464.5c0,2.35-1.88,4.24-4.24,4.24s-4.24-1.88-4.24-4.24,1.88-4.24,4.24-4.24,4.24,1.88,4.24,4.24Z"/><path class="f" d="M374.71,515.33c0,2.35-1.88,4.24-4.24,4.24s-4.24-1.88-4.24-4.24,1.88-4.24,4.24-4.24,4.24,1.88,4.24,4.24Z"/><path class="f" d="M408.5,501.4c0,2.35-1.88,4.24-4.24,4.24s-4.24-1.88-4.24-4.24,1.88-4.24,4.24-4.24,4.24,1.88,4.24,4.24Z"/><path class="f" d="M352.03,505.64c0,2.35-1.88,4.24-4.24,4.24s-4.24-1.88-4.24-4.24,1.88-4.24,4.24-4.24,4.24,1.88,4.24,4.24Z"/><path class="f" d="M396.73,528.89c0,2.35-1.88,4.24-4.24,4.24s-4.24-1.88-4.24-4.24,1.88-4.24,4.24-4.24,4.24,1.88,4.24,4.24Z"/><path class="f" d="M357.3,584.42c0,2.35-1.88,4.24-4.24,4.24s-4.24-1.88-4.24-4.24,1.88-4.24,4.24-4.24,4.24,1.88,4.24,4.24Z"/><path class="f" d="M255.45,316.26c0,2.35-1.88,4.24-4.24,4.24s-4.24-1.88-4.24-4.24,1.88-4.24,4.24-4.24,4.24,1.88,4.24,4.24Z"/><path class="f" d="M201.99,319.93c0,2.35-1.88,4.24-4.24,4.24s-4.24-1.88-4.24-4.24,1.88-4.24,4.24-4.24,4.24,1.88,4.24,4.24Z"/><path class="f" d="M247.45,259.31c0,2.35-1.88,4.24-4.24,4.24s-4.24-1.88-4.24-4.24,1.88-4.24,4.24-4.24,4.24,1.88,4.24,4.24Z"/></g><path class="f" d="M8.47,155.68c0,2.35-1.88,4.24-4.24,4.24s-4.24-1.88-4.24-4.24,1.88-4.24,4.24-4.24,4.24,1.88,4.24,4.24Z"/><path class="f" d="M18.07,195.12c0,2.35-1.88,4.24-4.24,4.24s-4.24-1.88-4.24-4.24,1.88-4.24,4.24-4.24,4.24,1.88,4.24,4.24Z"/></g></g></g></g></g></g></svg>